<svg width="49" height="48" viewBox="0 0 49 48" fill="none" xmlns="http://www.w3.org/2000/svg">
<path d="M33.9104 9.8L31.9504 7.8C31.7604 7.61 31.5004 7.5 31.2404 7.5H18.9604C18.6904 7.5 18.4304 7.61 18.2504 7.8L16.2904 9.8C15.9104 10.19 15.9104 10.81 16.2904 11.2L18.2504 13.2C18.4404 13.39 18.7004 13.5 18.9604 13.5H31.2404C31.5104 13.5 31.7704 13.39 31.9504 13.2L33.9104 11.2C34.2904 10.81 34.2904 10.19 33.9104 9.8Z" fill="#50BD38"/>
<path d="M40.9901 28.82L34.0701 19.32C33.6901 18.8 33.0901 18.5 32.4501 18.5H30.1001V16.5C30.1001 16.22 29.8801 16 29.6001 16H20.6001C20.3201 16 20.1001 16.22 20.1001 16.5V18.5H17.7501C17.1101 18.5 16.5101 18.81 16.1301 19.32L9.21014 28.82C8.70014 29.52 8.70014 30.47 9.21014 31.17L16.1301 40.67C16.5101 41.19 17.1101 41.49 17.7501 41.49H32.4601C33.1001 41.49 33.7001 41.18 34.0801 40.67L41.0001 31.17C41.5101 30.47 41.5101 29.52 41.0001 28.82H40.9901ZM19.8001 37.04C19.5901 37.18 19.3501 37.25 19.1101 37.25C18.7101 37.25 18.3101 37.05 18.0701 36.69L16.0701 33.69C15.6901 33.12 15.8401 32.34 16.4201 31.96C16.9901 31.58 17.7701 31.73 18.1501 32.31L20.1501 35.31C20.5301 35.88 20.3801 36.66 19.8001 37.04ZM21.1201 24.2L17.7801 29.18C17.5401 29.54 17.1401 29.73 16.7401 29.73C16.5001 29.73 16.2601 29.66 16.0501 29.52C15.4801 29.14 15.3201 28.36 15.7101 27.79L19.0501 22.81C19.4301 22.24 20.2101 22.08 20.7801 22.47C21.3501 22.85 21.5101 23.63 21.1201 24.2Z" fill="#50BD38"/>
</svg>
