<svg width="49" height="48" viewBox="0 0 49 48" fill="none" xmlns="http://www.w3.org/2000/svg">
<g clip-path="url(#clip0_14_1971)">
<path d="M13 10.1297C11.59 9.55969 10.91 8.88969 10.35 7.47969C10.19 7.07969 9.61 7.07969 9.45 7.47969C8.88 8.88969 8.21 9.56969 6.8 10.1297C6.4 10.2897 6.4 10.8697 6.8 11.0297C8.21 11.5997 8.89 12.2697 9.45 13.6797C9.61 14.0797 10.19 14.0797 10.35 13.6797C10.92 12.2697 11.59 11.5897 13 11.0297C13.4 10.8697 13.4 10.2897 13 10.1297Z" fill="#50BD38"/>
<path d="M14.7101 40.8398C13.4301 40.3298 12.8201 39.7198 12.3101 38.4398C12.1601 38.0798 11.6401 38.0798 11.4901 38.4398C10.9801 39.7198 10.3701 40.3298 9.09006 40.8398C8.73006 40.9898 8.73006 41.5098 9.09006 41.6598C10.3701 42.1698 10.9801 42.7798 11.4901 44.0598C11.6401 44.4198 12.1601 44.4198 12.3101 44.0598C12.8201 42.7798 13.4301 42.1698 14.7101 41.6598C15.0701 41.5098 15.0701 40.9898 14.7101 40.8398ZM25.7501 7.95981C26.9601 8.43981 27.5301 9.01981 28.0101 10.2198C28.1501 10.5598 28.6401 10.5598 28.7801 10.2198C29.2601 9.00981 29.8401 8.43981 31.0401 7.95981C31.3801 7.81981 31.3801 7.32981 31.0401 7.18981C29.8301 6.70981 29.2601 6.1298 28.7801 4.9298C28.6401 4.5898 28.1501 4.5898 28.0101 4.9298C27.5301 6.1398 26.9501 6.70981 25.7501 7.18981C25.4101 7.32981 25.4101 7.81981 25.7501 7.95981ZM43.0501 18.1898C41.8401 17.7098 41.2701 17.1298 40.7901 15.9298C40.6501 15.5898 40.1601 15.5898 40.0201 15.9298C39.5401 17.1398 38.9601 17.7098 37.7601 18.1898C37.4201 18.3298 37.4201 18.8198 37.7601 18.9598C38.9701 19.4398 39.5401 20.0198 40.0201 21.2198C40.1601 21.5598 40.6501 21.5598 40.7901 21.2198C41.2701 20.0098 41.8501 19.4398 43.0501 18.9598C43.3901 18.8198 43.3901 18.3298 43.0501 18.1898ZM22.8101 11.8298C15.0801 11.8298 8.81006 18.0998 8.81006 25.8298C8.81006 33.5598 15.0801 39.8298 22.8101 39.8298C30.5401 39.8298 36.8101 33.5598 36.8101 25.8298C36.8101 18.0998 30.5401 11.8298 22.8101 11.8298ZM15.3101 30.3298C14.2101 30.3298 13.3101 29.4298 13.3101 28.3298C13.3101 27.2298 14.2101 26.3298 15.3101 26.3298C16.4101 26.3298 17.3101 27.2298 17.3101 28.3298C17.3101 29.4298 16.4101 30.3298 15.3101 30.3298ZM20.3101 21.3298C18.5901 23.0498 16.3001 23.5598 15.2001 22.4698C14.1001 21.3698 14.6101 19.0798 16.3401 17.3598C18.0601 15.6398 20.3501 15.1298 21.4501 16.2198C22.5501 17.3198 22.0401 19.6098 20.3101 21.3298Z" fill="#50BD38"/>
</g>
<defs>
<clipPath id="clip0_14_1971">
<rect width="48" height="48" fill="white" transform="translate(0.399902)"/>
</clipPath>
</defs>
</svg>
