<svg width="49" height="48" viewBox="0 0 49 48" fill="none" xmlns="http://www.w3.org/2000/svg">
<g clip-path="url(#clip0_14_1981)">
<path d="M37.8104 12.81C37.8104 12.81 37.8104 12.81 37.8004 12.81C37.8604 12.37 37.8904 11.92 37.8904 11.45C37.8904 8.16 36.3904 5.5 34.5404 5.5C32.6904 5.5 31.1904 8.17 31.1904 11.45C31.1904 14.04 32.1204 16.24 33.4204 17.06C34.3404 17.84 35.9604 18.35 37.8104 18.35C40.6804 18.35 43.0104 17.11 43.0104 15.58C43.0104 14.05 40.6804 12.81 37.8104 12.81Z" fill="#50BD38"/>
<path d="M32.4003 18.2898C29.5203 15.4098 25.2503 14.8598 20.9503 18.0098L25.9903 23.0498C26.4803 23.5398 26.4803 24.3298 25.9903 24.8198C25.7503 25.0598 25.4303 25.1898 25.1103 25.1898C24.7903 25.1898 24.4703 25.0698 24.2303 24.8198L19.0603 19.6498C19.0603 19.6498 19.0503 19.6598 19.0403 19.6698C17.6403 21.0698 15.5003 23.8398 13.4103 27.0298L17.7203 31.3398C18.2103 31.8298 18.2103 32.6198 17.7203 33.1098C17.4803 33.3498 17.1603 33.4798 16.8403 33.4798C16.5203 33.4798 16.2003 33.3598 15.9603 33.1098L12.0503 29.1998C8.64029 34.8098 5.91029 40.9498 7.84029 42.8798C10.3703 45.4098 20.1803 39.9198 26.4903 35.3698L22.6803 31.5598C22.1903 31.0698 22.1903 30.2798 22.6803 29.7898C23.1703 29.2998 23.9603 29.2998 24.4503 29.7898L28.5103 33.8498C29.5603 33.0298 30.4303 32.2798 31.0403 31.6698C35.9603 26.7598 35.7303 21.6098 32.4203 18.2998L32.4003 18.2898Z" fill="#50BD38"/>
</g>
<defs>
<clipPath id="clip0_14_1981">
<rect width="48" height="48" fill="white" transform="translate(0.600098)"/>
</clipPath>
</defs>
</svg>
