<svg width="49" height="48" viewBox="0 0 49 48" fill="none" xmlns="http://www.w3.org/2000/svg">
<g clip-path="url(#clip0_14_2582)">
<path d="M32.8897 36.5H16.8896C16.6096 36.5 16.3896 36.72 16.3896 37V43C16.3896 44.1 17.2896 45 18.3896 45H31.3896C32.4896 45 33.3897 44.1 33.3897 43V37C33.3897 36.72 33.1697 36.5 32.8897 36.5Z" fill="#50BD38"/>
<path d="M35.7298 10H14.1498C13.8598 10 13.6298 10.25 13.6498 10.54L15.2498 32.15C15.3298 33.19 16.1998 34 17.2398 34H32.5298C33.5698 34 34.4398 33.2 34.5198 32.16L36.2098 10.54C36.2298 10.25 35.9998 10 35.7098 10H35.7298ZM28.0798 17.95C28.4498 17.57 29.0598 17.57 29.4398 17.95C29.8098 18.32 29.8098 18.93 29.4398 19.31C29.0698 19.68 28.0398 19.97 27.7298 19.66C27.4198 19.35 27.7098 18.33 28.0798 17.95ZM25.3898 16.3C25.9198 16.3 26.3498 16.73 26.3498 17.26C26.3498 17.79 25.8298 18.72 25.3898 18.72C24.9498 18.72 24.4298 17.79 24.4298 17.26C24.4298 16.73 24.8598 16.3 25.3898 16.3ZM19.6898 22C19.6898 21.47 20.1198 21.04 20.6498 21.04C21.1798 21.04 22.1098 21.56 22.1098 22C22.1098 22.44 21.1798 22.96 20.6498 22.96C20.1198 22.96 19.6898 22.53 19.6898 22ZM22.6998 26.05C22.3298 26.43 21.7198 26.43 21.3398 26.05C20.9698 25.68 20.9698 25.07 21.3398 24.69C21.7098 24.31 22.7398 24.03 23.0498 24.34C23.3598 24.65 23.0698 25.67 22.6998 26.05ZM23.0498 19.66C22.7398 19.97 21.7198 19.68 21.3398 19.31C20.9698 18.93 20.9698 18.33 21.3398 17.95C21.7098 17.57 22.3198 17.57 22.6998 17.95C23.0698 18.32 23.3598 19.35 23.0498 19.66ZM25.3898 27.7C24.8598 27.7 24.4298 27.27 24.4298 26.74C24.4298 26.21 24.9498 25.28 25.3898 25.28C25.8298 25.28 26.3498 26.21 26.3498 26.74C26.3498 27.27 25.9198 27.7 25.3898 27.7ZM25.3898 24C24.2898 24 23.3898 23.1 23.3898 22C23.3898 20.9 24.2898 20 25.3898 20C26.4898 20 27.3898 20.9 27.3898 22C27.3898 23.1 26.4898 24 25.3898 24ZM29.4398 26.05C29.0698 26.43 28.4598 26.43 28.0798 26.05C27.7098 25.68 27.4198 24.65 27.7298 24.34C28.0398 24.03 29.0598 24.32 29.4398 24.69C29.8098 25.07 29.8098 25.67 29.4398 26.05ZM30.1298 22.96C29.5998 22.96 28.6698 22.44 28.6698 22C28.6698 21.56 29.5998 21.04 30.1298 21.04C30.6598 21.04 31.0898 21.47 31.0898 22C31.0898 22.53 30.6598 22.96 30.1298 22.96ZM35.3898 4H14.4098C13.8498 4 13.3998 4.46 13.4098 5.02L13.4698 7.01C13.4698 7.28 13.6998 7.5 13.9698 7.5H35.8898C36.1698 7.5 36.3898 7.28 36.3898 7V5C36.3898 4.45 35.9398 4 35.3898 4Z" fill="#50BD38"/>
</g>
<defs>
<clipPath id="clip0_14_2582">
<rect width="48" height="48" fill="white" transform="translate(0.399902)"/>
</clipPath>
</defs>
</svg>
