<svg width="49" height="48" viewBox="0 0 49 48" fill="none" xmlns="http://www.w3.org/2000/svg">
<g clip-path="url(#clip0_14_2571)">
<path d="M17.7596 23.7199L18.2796 17.4099C18.2996 17.1799 18.1596 16.9699 17.9496 16.8999L10.1596 13.4399C9.71964 13.2899 9.23964 13.4499 8.98964 13.8399L6.90964 17.0799C6.21964 18.1599 6.69964 19.5999 7.89964 20.0399L17.0896 24.1499C17.3996 24.2599 17.7296 24.0499 17.7596 23.7199ZM20.7296 24.7699H28.9396C29.2296 24.7699 29.4596 24.5199 29.4396 24.2299L28.9696 17.6399C28.9496 17.3799 28.7296 17.1799 28.4696 17.1799H21.2796C21.0196 17.1799 20.7996 17.3799 20.7796 17.6399L20.2396 24.2299C20.2196 24.5199 20.4496 24.7699 20.7396 24.7699H20.7296ZM17.5596 27.0599L9.11964 23.2199C8.63964 23.0399 8.22964 23.6199 8.56964 24.0099L20.7296 40.5899C20.9396 40.8299 21.3296 40.6299 21.2496 40.3199L17.8696 27.3899C17.8296 27.2299 17.7096 27.0999 17.5596 27.0499V27.0599ZM39.5896 23.5999L31.6696 27.2899C31.5296 27.3399 31.4196 27.4599 31.3696 27.5999L27.1496 40.1499C27.0496 40.4599 27.4396 40.6899 27.6596 40.4499L40.1296 24.3999C40.4796 24.0099 40.0696 23.4099 39.5796 23.5999H39.5896ZM28.4696 27.2499H21.0496C20.7196 27.2499 20.4796 27.5599 20.5696 27.8799L23.8196 40.2999C23.9496 40.7799 24.6196 40.7999 24.7796 40.3299L28.9496 27.9099C29.0596 27.5899 28.8196 27.2499 28.4796 27.2499H28.4696ZM42.5096 17.0899L40.4296 13.8499C40.1796 13.4599 39.6896 13.2899 39.2496 13.4499L31.7696 16.8699C31.5596 16.9499 31.4196 17.1499 31.4396 17.3799L31.8896 23.7099C31.9096 24.0399 32.2496 24.2599 32.5596 24.1399L41.5196 20.0599C42.7196 19.6099 43.1896 18.1799 42.4996 17.0999L42.5096 17.0899Z" fill="#50BD38"/>
<path d="M35.7595 10.9698L28.7395 8.3298C28.6795 8.3098 28.6195 8.2998 28.5595 8.2998H20.8495C20.7895 8.2998 20.7295 8.3098 20.6695 8.3298L13.6895 10.9598C13.2495 11.1198 13.2595 11.7398 13.6895 11.8998L19.4895 14.6598C19.5395 14.6798 19.5995 14.6898 19.6595 14.6898H29.9595C30.0195 14.6898 30.0795 14.6798 30.1295 14.6598L35.7395 11.9198C36.1795 11.7598 36.1795 11.1498 35.7395 10.9798L35.7595 10.9698Z" fill="#50BD38"/>
</g>
<defs>
<clipPath id="clip0_14_2571">
<rect width="48" height="48" fill="white" transform="translate(0.199707)"/>
</clipPath>
</defs>
</svg>
