<svg width="24" height="25" viewBox="0 0 24 25" fill="none" xmlns="http://www.w3.org/2000/svg">
<path fill-rule="evenodd" clip-rule="evenodd" d="M12 9.19922C10.3431 9.19922 9 10.5424 9 12.1992C9 13.8561 10.3431 15.1992 12 15.1992C13.6569 15.1992 15 13.8561 15 12.1992C15 10.5424 13.6569 9.19922 12 9.19922ZM7 12.1992C7 9.43779 9.23858 7.19922 12 7.19922C14.7614 7.19922 17 9.43779 17 12.1992C17 14.9606 14.7614 17.1992 12 17.1992C9.23858 17.1992 7 14.9606 7 12.1992Z" fill="white"/>
<path fill-rule="evenodd" clip-rule="evenodd" d="M7.30009 2.25433C9.54474 1.19357 12.0822 0.923331 14.4999 1.48755C16.9176 2.05177 19.0734 3.41727 20.6166 5.36201C22.1599 7.30675 22.9999 9.71636 23 12.199V13.1991C23 14.26 22.5786 15.2774 21.8284 16.0275C21.0783 16.7777 20.0609 17.1991 19 17.1991C17.9391 17.1991 16.9217 16.7777 16.1716 16.0275C15.4214 15.2774 15 14.26 15 13.1991V8.19909C15 7.6468 15.4477 7.19909 16 7.19909C16.5523 7.19909 17 7.6468 17 8.19909V13.1991C17 13.7295 17.2107 14.2382 17.5858 14.6133C17.9609 14.9884 18.4696 15.1991 19 15.1991C19.5304 15.1991 20.0392 14.9884 20.4142 14.6133C20.7893 14.2382 21 13.7295 21 13.1991V12.1992C21 12.1991 21 12.1992 21 12.1992C20.9999 10.1679 20.3126 8.19636 19.05 6.60523C17.7873 5.01408 16.0235 3.89685 14.0454 3.43522C12.0673 2.97358 9.99115 3.19469 8.15462 4.06258C6.3181 4.93047 4.82917 6.39411 3.92994 8.2155C3.03072 10.0369 2.77408 12.1089 3.20176 14.0947C3.62944 16.0804 4.71629 17.8631 6.28558 19.1528C7.85487 20.4425 9.8143 21.1635 11.8453 21.1984C13.8762 21.2333 15.8593 20.5802 17.472 19.3451C17.9105 19.0094 18.5382 19.0926 18.874 19.5311C19.2097 19.9696 19.1265 20.5972 18.688 20.933C16.7169 22.4425 14.2932 23.2408 11.8109 23.1981C9.32859 23.1554 6.93372 22.2743 5.0157 20.6979C3.09768 19.1216 1.76932 16.9428 1.24659 14.5157C0.723873 12.0887 1.03754 9.55626 2.13659 7.33012C3.23565 5.10398 5.05545 3.31509 7.30009 2.25433Z" fill="white"/>
</svg>
