<svg width="49" height="48" viewBox="0 0 49 48" fill="none" xmlns="http://www.w3.org/2000/svg">
<g clip-path="url(#clip0_14_1991)">
<path d="M10.9995 12.0102C9.74954 14.4902 9.16954 17.3102 9.51954 20.2502C9.54954 20.5202 9.58954 20.7802 9.61954 21.0302C9.69954 21.5702 10.1795 21.9802 10.7195 21.9202C10.8795 21.9002 11.0395 21.8902 11.2095 21.8902C11.4395 21.8902 11.6695 21.9102 11.8895 21.9502C12.1895 22.0002 12.4895 21.9002 12.7095 21.6902C15.5795 18.9902 19.5495 16.2902 22.3295 14.8302C18.6495 13.0802 14.8395 11.7602 12.7195 11.2002C12.0295 11.0202 11.3195 11.3602 10.9995 12.0002V12.0102ZM25.2095 3.75023C21.2595 3.75023 17.8695 4.91023 15.2695 6.84023C14.2795 7.57023 14.5095 9.11023 15.6795 9.49023C18.6795 10.4702 22.7195 12.0902 26.2795 14.0702C28.6195 15.1502 33.2095 18.7702 36.3695 21.7402C36.5995 21.9602 36.9195 22.0702 37.2295 22.0002C37.5395 21.9302 37.8595 21.8902 38.1895 21.8902C38.3395 21.8902 38.4895 21.8902 38.6395 21.9102C39.1495 21.9602 39.6095 21.5902 39.7095 21.0802C39.7595 20.8202 39.8095 20.5402 39.8595 20.2402C41.2995 11.8102 35.9895 3.74023 25.1995 3.74023L25.2095 3.75023Z" fill="#50BD38"/>
<path d="M38.6897 24.4603C38.0997 24.3103 37.5297 24.4403 37.0897 24.7403C36.6697 25.0303 36.1297 25.0103 35.7697 24.6503C34.0197 22.8703 31.4497 20.6803 29.2097 18.9703C29.1697 18.9403 29.1197 18.9303 29.0797 18.9003C27.9397 17.9803 26.5797 17.1103 25.1397 16.3003C23.2197 16.8803 16.8397 20.8703 13.4197 24.5103C13.0997 24.8503 12.5797 24.8903 12.1697 24.6603C11.7997 24.4503 11.3497 24.3503 10.8697 24.4303C9.88973 24.5903 9.21973 25.5203 9.21973 26.5103V31.1903C9.21973 31.9803 9.61973 32.7403 10.3197 33.1103C10.8997 33.4203 11.4297 33.3803 11.8897 33.2103C12.1997 42.1003 21.0397 45.2503 24.6897 45.2503C28.3397 45.2503 37.1897 42.1003 37.4897 33.2103C37.9597 33.3903 38.4997 33.4203 39.0797 33.1103C39.7697 32.7503 40.1697 32.0003 40.1697 31.2203V26.4603C40.1697 25.5403 39.5697 24.6703 38.6797 24.4503L38.6897 24.4603ZM18.1997 31.5003C15.9897 31.5003 14.1997 30.3803 14.1997 29.0003C14.1997 27.6203 15.9897 26.5003 18.1997 26.5003C20.4097 26.5003 22.1997 27.6203 22.1997 29.0003C22.1997 30.3803 20.4097 31.5003 18.1997 31.5003ZM27.9297 39.5403C27.6297 40.6903 26.5897 41.5003 25.3997 41.5003H24.2097C23.0197 41.5003 21.9797 40.6903 21.6797 39.5403C21.5397 39.0103 21.9397 38.5003 22.4897 38.5003H27.1297C27.6697 38.5003 28.0697 39.0103 27.9397 39.5403H27.9297ZM27.5397 37.5003H22.0697C21.7497 37.5003 21.5397 37.1803 21.6497 36.8903C21.9697 36.0503 22.7797 35.5003 23.6797 35.5003H25.9397C26.8397 35.5003 27.6397 36.0503 27.9697 36.8903C28.0797 37.1803 27.8697 37.5003 27.5497 37.5003H27.5397ZM31.1997 31.5003C28.9897 31.5003 27.1997 30.3803 27.1997 29.0003C27.1997 27.6203 28.9897 26.5003 31.1997 26.5003C33.4097 26.5003 35.1997 27.6203 35.1997 29.0003C35.1997 30.3803 33.4097 31.5003 31.1997 31.5003Z" fill="#50BD38"/>
</g>
<defs>
<clipPath id="clip0_14_1991">
<rect width="48" height="48" fill="white" transform="translate(0.199707)"/>
</clipPath>
</defs>
</svg>
