<svg width="48" height="48" viewBox="0 0 48 48" fill="none" xmlns="http://www.w3.org/2000/svg">
<g clip-path="url(#clip0_14_2593)">
<path d="M31.7496 4.93977C31.6396 4.85977 31.4796 4.87977 31.3996 4.98977C29.9796 6.91977 28.7396 8.96977 27.5996 11.0898C26.4596 13.2098 25.4296 15.4098 24.5296 17.6898C23.6196 19.9598 22.8296 22.2998 22.2096 24.7198C21.5396 27.1298 21.1196 29.6098 20.7596 32.1298C20.7096 32.4698 20.7096 32.8398 20.7496 33.1898C21.0196 35.3998 23.0396 36.9798 25.2496 36.7098C27.4596 36.4398 29.0396 34.4198 28.7696 32.2098V32.1298C28.4896 29.9698 28.2696 27.7598 28.2796 25.5198C28.2496 23.2798 28.3796 21.0098 28.6396 18.7398C28.8896 16.4698 29.2796 14.1898 29.8096 11.9298C30.3296 9.66977 30.9796 7.40977 31.8196 5.22977C31.8596 5.11977 31.8196 4.99977 31.7396 4.92977L31.7496 4.93977Z" fill="#50BD38"/>
<path d="M36.4998 34.7497H39.9798V32.3297C39.9798 31.3397 39.2698 30.4997 38.2898 30.3497C36.6398 30.0897 34.8298 29.9497 32.9198 29.9197C32.5998 29.9197 32.3298 30.2197 32.4098 30.5297C32.7098 31.7597 32.7298 33.0997 32.3398 34.4997C31.5398 37.3397 29.1298 39.5297 26.2198 40.0197C21.3198 40.8497 17.0798 37.0997 17.0798 32.3597C17.0798 31.7197 17.1598 31.1097 17.3098 30.5197C17.3898 30.2097 17.1298 29.9097 16.8098 29.9097C14.6198 29.9397 12.5398 30.1497 10.6498 30.5097C9.70979 30.6897 9.02979 31.5197 9.02979 32.4797V34.2397H12.0098C12.6998 34.2397 13.2598 34.7997 13.2598 35.4897C13.2598 36.1797 12.6998 36.7397 12.0098 36.7397H9.02979V42.0997C9.02979 43.1997 9.92979 44.0997 11.0298 44.0997H37.9898C39.0898 44.0997 39.9898 43.1997 39.9898 42.0997V37.2397H36.5098C35.8198 37.2397 35.2598 36.6797 35.2598 35.9897C35.2598 35.2997 35.8198 34.7397 36.5098 34.7397L36.4998 34.7497Z" fill="#50BD38"/>
</g>
<defs>
<clipPath id="clip0_14_2593">
<rect width="48" height="48" fill="white"/>
</clipPath>
</defs>
</svg>
