<svg width="16" height="16" viewBox="0 0 16 16" fill="none" xmlns="http://www.w3.org/2000/svg">
<path d="M8.08 12.8638L8 12.9401L7.912 12.8638C4.112 9.57548 1.6 7.40109 1.6 5.19619C1.6 3.6703 2.8 2.52589 4.4 2.52589C5.632 2.52589 6.832 3.28883 7.256 4.32643H8.744C9.168 3.28883 10.368 2.52589 11.6 2.52589C13.2 2.52589 14.4 3.6703 14.4 5.19619C14.4 7.40109 11.888 9.57548 8.08 12.8638ZM11.6 1C10.208 1 8.872 1.61798 8 2.58692C7.128 1.61798 5.792 1 4.4 1C1.936 1 0 2.83869 0 5.19619C0 8.07248 2.72 10.43 6.84 13.9929L8 15L9.16 13.9929C13.28 10.43 16 8.07248 16 5.19619C16 2.83869 14.064 1 11.6 1Z" fill="black"/>
</svg>
