<svg width="49" height="48" viewBox="0 0 49 48" fill="none" xmlns="http://www.w3.org/2000/svg">
<g clip-path="url(#clip0_14_2030)">
<path d="M40.7197 27.4802L33.1297 5.91023C32.9897 5.51023 32.6097 5.24023 32.1897 5.24023H17.6097C17.1897 5.24023 16.8097 5.51023 16.6697 5.91023L9.08971 27.4802C8.96971 27.8202 9.03972 28.2002 9.27972 28.4702C9.83972 29.1302 11.0497 30.2202 12.9097 30.2202C14.4497 30.2202 15.5497 29.4702 16.1997 28.8402C16.5997 28.4502 17.2197 28.4502 17.6197 28.8402C18.2697 29.4702 19.3697 30.2202 20.9097 30.2202C22.4497 30.2202 23.5497 29.4702 24.1997 28.8402C24.5997 28.4502 25.2197 28.4502 25.6197 28.8402C26.2697 29.4702 27.3697 30.2202 28.9097 30.2202C30.4497 30.2202 31.5497 29.4702 32.1997 28.8402C32.5997 28.4502 33.2197 28.4502 33.6197 28.8402C34.2697 29.4702 35.3697 30.2202 36.9097 30.2202C38.7697 30.2202 39.9797 29.1302 40.5397 28.4702C40.7797 28.1902 40.8497 27.8202 40.7297 27.4802H40.7197ZM29.3197 40.7502H26.3897V33.2502C26.3897 32.4202 25.7197 31.7502 24.8897 31.7502C24.0597 31.7502 23.3897 32.4202 23.3897 33.2502V40.7502H20.4697C19.0497 40.7502 17.8997 41.9002 17.8997 43.3202C17.8997 43.5602 18.0897 43.7502 18.3297 43.7502H31.4697C31.7097 43.7502 31.8997 43.5602 31.8997 43.3202C31.8997 41.9002 30.7497 40.7502 29.3297 40.7502H29.3197Z" fill="#50BD38"/>
<path d="M32.8999 31.75C32.0699 31.75 31.3999 32.42 31.3999 33.25V34.75C31.3999 35.58 32.0699 36.25 32.8999 36.25C33.7299 36.25 34.3999 35.58 34.3999 34.75V33.25C34.3999 32.42 33.7299 31.75 32.8999 31.75Z" fill="#50BD38"/>
</g>
<defs>
<clipPath id="clip0_14_2030">
<rect width="48" height="48" fill="white" transform="translate(0.399902)"/>
</clipPath>
</defs>
</svg>
