<svg width="48" height="48" viewBox="0 0 48 48" fill="none" xmlns="http://www.w3.org/2000/svg">
<g clip-path="url(#clip0_14_2021)">
<path d="M43.3199 14.5698L25.9899 4.61984C25.3699 4.26984 24.6899 4.08984 23.9999 4.08984C23.3099 4.08984 22.6199 4.26984 22.0099 4.61984L4.67994 14.5698C3.35994 15.3298 3.35994 17.2298 4.67994 17.9898L23.0199 28.5198C23.3199 28.6898 23.6599 28.7798 23.9999 28.7798C24.3399 28.7798 24.6799 28.6898 24.9799 28.5198L43.3199 17.9898C44.6399 17.2298 44.6399 15.3298 43.3199 14.5698Z" fill="#50BD38"/>
<path d="M43.3199 22.14L42.1699 21.48L24.9799 31.35C24.6799 31.52 24.3399 31.61 23.9999 31.61C23.6599 31.61 23.3199 31.52 23.0199 31.35L5.82994 21.48L4.67994 22.14C3.35994 22.9 3.35994 24.8 4.67994 25.56L23.0199 36.09C23.3199 36.26 23.6599 36.35 23.9999 36.35C24.3399 36.35 24.6799 36.26 24.9799 36.09L43.3199 25.56C44.6399 24.8 44.6399 22.9 43.3199 22.14Z" fill="#50BD38"/>
<path d="M43.3199 29.7L42.1699 29.04L24.9799 38.91C24.6799 39.08 24.3399 39.17 23.9999 39.17C23.6599 39.17 23.3199 39.08 23.0199 38.91L5.82994 29.04L4.67994 29.7C3.35994 30.46 3.35994 32.36 4.67994 33.12L23.0199 43.65C23.3199 43.82 23.6599 43.91 23.9999 43.91C24.3399 43.91 24.6799 43.82 24.9799 43.65L43.3199 33.12C44.6399 32.36 44.6399 30.46 43.3199 29.7Z" fill="#50BD38"/>
</g>
<defs>
<clipPath id="clip0_14_2021">
<rect width="48" height="48" fill="white"/>
</clipPath>
</defs>
</svg>
