<svg width="49" height="48" viewBox="0 0 49 48" fill="none" xmlns="http://www.w3.org/2000/svg">
<g clip-path="url(#clip0_14_2001)">
<path d="M17.4198 8.23981L14.7998 6.73981C14.1298 6.35981 13.2998 6.83981 13.2998 7.60981V18.3898C13.2998 18.6698 13.5198 18.8898 13.7998 18.8898H19.7998C20.0798 18.8898 20.2998 18.6698 20.2998 18.3898V13.2098C20.2998 11.1598 19.1998 9.25981 17.4198 8.24981V8.23981ZM39.7998 38.3898H27.7998C27.5198 38.3898 27.2998 38.6098 27.2998 38.8898V41.8898C27.2998 42.1698 27.5198 42.3898 27.7998 42.3898H39.7998C40.0798 42.3898 40.2998 42.1698 40.2998 41.8898V38.8898C40.2998 38.6098 40.0798 38.3898 39.7998 38.3898Z" fill="#50BD38"/>
<path d="M36.2998 17.8896H31.2998C29.0898 17.8896 27.2998 19.6796 27.2998 21.8896V35.3896C27.2998 35.6696 27.5198 35.8896 27.7998 35.8896H39.7998C40.0798 35.8896 40.2998 35.6696 40.2998 35.3896V21.8896C40.2998 19.6796 38.5098 17.8896 36.2998 17.8896ZM33.2998 29.0296C33.2998 29.8596 32.6298 30.5296 31.7998 30.5296C30.9698 30.5296 30.2998 29.8596 30.2998 29.0296V23.0296C30.2998 22.1996 30.9698 21.5296 31.7998 21.5296C32.6298 21.5296 33.2998 22.1996 33.2998 23.0296V29.0296ZM22.2998 25.0296H21.2998V21.8896C21.2998 21.6096 21.0798 21.3896 20.7998 21.3896H12.7998C12.5198 21.3896 12.2998 21.6096 12.2998 21.8896V25.0296H11.2998C10.7498 25.0296 10.2998 25.4796 10.2998 26.0296V40.0296C10.2998 41.1296 11.1998 42.0296 12.2998 42.0296H21.2998C22.3998 42.0296 23.2998 41.1296 23.2998 40.0296V26.0296C23.2998 25.4796 22.8498 25.0296 22.2998 25.0296ZM15.7998 36.0296C15.7998 36.8596 15.1298 37.5296 14.2998 37.5296C13.4698 37.5296 12.7998 36.8596 12.7998 36.0296V30.0296C12.7998 29.1996 13.4698 28.5296 14.2998 28.5296C15.1298 28.5296 15.7998 29.1996 15.7998 30.0296V36.0296Z" fill="#50BD38"/>
</g>
<defs>
<clipPath id="clip0_14_2001">
<rect width="48" height="48" fill="white" transform="translate(0.799805)"/>
</clipPath>
</defs>
</svg>
