<svg width="49" height="48" viewBox="0 0 49 48" fill="none" xmlns="http://www.w3.org/2000/svg">
<g clip-path="url(#clip0_14_12133)">
<path d="M42.68 32.7001H7.91999C7.17999 32.7001 6.68999 33.4801 7.02999 34.1501L11.03 42.1501C11.2 42.4901 11.55 42.7001 11.92 42.7001H38.68C39.06 42.7001 39.4 42.4901 39.57 42.1501L43.57 34.1501C43.9 33.4901 43.42 32.7001 42.68 32.7001ZM25.76 30.2001H37.61C38.36 30.2001 38.84 29.4101 38.5 28.7401L27.15 6.8401C26.67 5.9101 25.26 6.2501 25.26 7.3001V29.7001C25.26 29.9801 25.48 30.2001 25.76 30.2001Z" fill="white"/>
<path d="M20.9598 14.5902L12.1798 26.2702C11.7498 26.8502 12.0498 27.6802 12.7498 27.8402L22.1398 30.0502C22.4498 30.1202 22.7498 29.8902 22.7498 29.5602V15.1902C22.7498 14.2302 21.5298 13.8202 20.9498 14.5902H20.9598Z" fill="white"/>
</g>
<defs>
<clipPath id="clip0_14_12133">
<rect width="48" height="48" fill="white" transform="translate(0.799805)"/>
</clipPath>
</defs>
</svg>
