<svg width="24" height="24" viewBox="0 0 24 24" fill="none" xmlns="http://www.w3.org/2000/svg">
<path fill-rule="evenodd" clip-rule="evenodd" d="M17.1596 13.6798C17.3141 12.7757 17.4114 12.1739 17.4918 11.6615C17.5721 11.1491 17.6354 10.7245 17.6833 10.3891C17.7312 10.0538 17.7636 9.80622 17.793 9.59467C17.8223 9.38156 17.8486 9.20292 17.8718 9.01802C17.895 8.83312 17.915 8.64038 17.9305 8.47271C17.9459 8.30347 17.9567 8.15774 17.9614 8.04649C17.9645 7.9368 17.9614 7.86315 17.9552 7.81144C17.949 7.75973 17.9428 7.73152 17.932 7.69705C17.9212 7.66257 17.9073 7.62027 17.8872 7.58109C17.8671 7.54192 17.8424 7.50431 17.8084 7.46983C17.7745 7.43379 17.7312 7.40089 17.6771 7.37268C17.6231 7.34448 17.5566 7.32097 17.484 7.30687C17.4114 7.29277 17.3311 7.28963 17.2492 7.2959C17.1674 7.30217 17.0855 7.31627 16.9712 7.34448C16.8568 7.37268 16.7101 7.41186 16.534 7.46983C16.3594 7.52781 16.1555 7.60146 14.4408 8.32541C12.7261 9.04936 9.50052 10.4205 7.88466 11.1115C6.2688 11.8026 6.2657 11.8104 6.21782 11.8323C6.16993 11.8543 6.07878 11.8903 5.97219 11.9389C5.8656 11.9875 5.74511 12.0501 5.6447 12.1081C5.54429 12.1677 5.46241 12.2225 5.40062 12.2742C5.33883 12.3259 5.29403 12.3714 5.26622 12.4121C5.23842 12.4513 5.22606 12.4858 5.21988 12.5281C5.2137 12.5704 5.21061 12.6221 5.21833 12.6691C5.22451 12.7161 5.23996 12.7569 5.26313 12.7945C5.2863 12.8321 5.32029 12.8665 5.36509 12.9026C5.40989 12.9386 5.46859 12.9762 5.54428 13.0138C5.62152 13.0514 5.71576 13.0906 5.86251 13.1423C6.00927 13.194 6.207 13.2599 6.47116 13.3413C6.73532 13.4244 7.06437 13.5247 7.31617 13.5921C7.56797 13.6594 7.74253 13.6955 7.8862 13.7221C8.02987 13.7488 8.14264 13.766 8.25386 13.7707C8.36354 13.7754 8.47168 13.7707 8.57673 13.7519C8.68177 13.7347 8.78527 13.7049 8.88414 13.672C8.98146 13.6391 9.07261 13.5999 9.16838 13.5513C9.26416 13.5027 9.36303 13.4432 9.85118 13.1157C10.3393 12.7882 11.2152 12.1927 12.0015 11.6584C12.7894 11.1256 13.4876 10.6555 13.8723 10.3985C14.257 10.1416 14.3296 10.0977 14.3836 10.0632C14.4377 10.0287 14.4732 10.0052 14.5103 9.98955C14.5474 9.97388 14.5844 9.96761 14.6184 9.96448C14.6524 9.96135 14.6833 9.96135 14.7111 9.96762C14.7374 9.97388 14.7606 9.98485 14.7791 9.99895C14.7976 10.0131 14.8115 10.0319 14.8193 10.0648C14.827 10.0992 14.8301 10.1478 14.8254 10.1854C14.8208 10.223 14.81 10.2481 14.7482 10.3233C14.6864 10.4001 14.5736 10.527 14.243 10.8561C13.9125 11.1867 13.3656 11.7195 13.0304 12.0454C12.6952 12.3714 12.5716 12.4889 12.465 12.5908C12.3568 12.6926 12.2642 12.7788 12.1668 12.8712C12.0695 12.9637 11.9676 13.0624 11.8687 13.158C11.7698 13.2536 11.674 13.3445 11.5829 13.4322C11.4918 13.52 11.4037 13.6046 11.3157 13.6923C11.2276 13.7801 11.1395 13.871 11.0685 13.9478C10.9974 14.0245 10.9434 14.0888 10.9016 14.1452C10.8599 14.2032 10.8306 14.2549 10.8043 14.3113C10.7781 14.3677 10.7549 14.4288 10.7441 14.4821C10.7333 14.5354 10.7364 14.5824 10.7518 14.6419C10.7688 14.7015 10.7981 14.7736 10.8352 14.8378C10.8723 14.9021 10.9186 14.9585 10.9851 15.0227C11.0515 15.087 11.1365 15.159 11.4701 15.3941C11.8038 15.6291 12.3831 16.0272 12.9547 16.4189C13.5263 16.8107 14.0901 17.1961 14.4361 17.4327C14.7837 17.6694 14.9135 17.7571 15.0433 17.8229C15.1715 17.8887 15.2981 17.9311 15.3831 17.9577C15.4681 17.9843 15.5113 17.9922 15.5855 17.9969C15.6596 18.0016 15.7647 18.0031 15.8419 17.9953C15.9192 17.9875 15.967 17.9702 16.0211 17.9373C16.0752 17.906 16.1339 17.8605 16.1941 17.7947C16.2544 17.7289 16.3177 17.6427 16.3687 17.5534C16.4212 17.4625 16.4614 17.3685 16.4954 17.2745C16.5293 17.1805 16.5541 17.0896 16.6715 16.4408C16.7889 15.7921 17.0005 14.584 17.1535 13.6798H17.1596ZM12 0C18.6272 0 24 5.3732 24 12C24 18.6268 18.6272 24 12 24C5.37281 24 0 18.6268 0 12C0 5.3732 5.37281 0 12 0ZM12 1.32097C17.9089 1.32097 22.6977 6.10185 22.6977 12.0016C22.6977 17.9013 17.9089 22.6822 12 22.6822C6.09114 22.6822 1.30227 17.9013 1.30227 12.0016C1.30227 6.10185 6.09269 1.32097 12 1.32097Z" fill="white"/>
</svg>
