<svg width="24" height="24" viewBox="0 0 24 24" fill="none" xmlns="http://www.w3.org/2000/svg">
<path fill-rule="evenodd" clip-rule="evenodd" d="M9.60402 12.8979C9.05252 12.2601 8.48867 11.2212 8.16426 10.4487C8.05458 10.187 7.94181 9.93157 7.84449 9.65735C7.77034 9.44581 7.64367 9.03212 7.5139 8.87699C7.31154 8.63411 6.97631 8.68895 6.59938 8.68895C6.38157 8.68895 5.65242 8.67798 5.49485 8.69209C5.09475 8.72656 5.00824 8.924 5.08239 9.33769C5.138 9.64168 5.23069 9.93941 5.32338 10.2089C5.59217 10.9846 5.97219 11.79 6.37539 12.4889C6.64109 12.9512 6.92688 13.426 7.22657 13.8569C7.37951 14.0778 7.53244 14.2956 7.69156 14.5009C8.26622 15.2405 9.13131 16.0334 10.154 16.4659C10.6715 16.6853 11.3002 16.8671 11.9784 16.8514C12.3151 16.8436 12.6874 16.8295 12.8713 16.6367C12.9686 16.5349 12.9763 16.3688 12.9763 16.1901C12.9763 16.0021 12.9763 15.8156 12.9763 15.6276C12.9763 15.3816 12.947 14.7407 13.0242 14.5605C13.0829 14.4226 13.2281 14.3897 13.4212 14.4069C13.585 14.421 13.7178 14.4884 13.8321 14.5542C14.0546 14.6796 14.4284 14.9741 14.6076 15.1543L14.7513 15.2907C14.8455 15.3753 14.9475 15.474 15.0309 15.5696C15.1189 15.6683 15.207 15.7545 15.2951 15.8532L15.5592 16.1478C15.7029 16.3155 15.9269 16.5693 16.1123 16.7041C16.3826 16.8984 16.6761 16.853 17.0623 16.853C17.4114 16.853 17.8115 16.8718 18.1529 16.8483C18.5067 16.8232 18.6874 16.6038 18.5747 16.223C18.4557 15.8203 17.9722 15.2249 17.6926 14.8864L16.7688 13.8726C16.7425 13.8443 16.7302 13.8255 16.7024 13.7989C16.5324 13.6391 16.1972 13.3241 16.1617 13.0906C16.1292 12.8838 16.4073 12.5469 16.5324 12.362C16.9882 11.6835 18.19 9.89083 18.3182 9.14808C18.3522 8.94907 18.2981 8.82842 18.1699 8.75633C18.0448 8.68425 17.8579 8.69052 17.6895 8.69052H17.1349C16.8615 8.69052 16.3023 8.65761 16.0844 8.74066C15.8095 8.84565 15.7214 9.10264 15.6102 9.37529C15.5283 9.57587 15.3507 9.93314 15.2503 10.1259C14.949 10.6931 14.7837 10.9877 14.4238 11.5189C14.2724 11.7414 14.1087 11.9499 13.9418 12.1473C13.829 12.2805 13.5077 12.5908 13.3285 12.6393C12.9315 12.7475 12.9779 12.2319 12.9779 11.9169V9.68556C12.9779 9.36746 13.0335 8.88483 12.8002 8.75007C12.6674 8.67328 12.4851 8.69209 12.312 8.69209H10.6576C10.3857 8.69209 9.90062 8.61374 9.85273 8.99138C9.80021 9.39723 10.4367 9.47088 10.4367 10.632V11.7477C10.4367 12.1113 10.4506 12.5046 10.4367 12.8634C10.4289 13.0264 10.4042 13.2128 10.2915 13.2677C10.1014 13.3601 9.85118 13.1611 9.74459 13.0405C9.69979 12.9903 9.65191 12.9512 9.60711 12.8979H9.60402ZM12 0C18.6272 0 24 5.3732 24 12C24 18.6268 18.6272 24 12 24C5.37281 24 0 18.6284 0 12C0 5.37164 5.37281 0 12 0ZM12 1.32097C17.9089 1.32097 22.6977 6.10185 22.6977 12.0016C22.6977 17.9013 17.9089 22.6822 12 22.6822C6.09114 22.6822 1.30227 17.8981 1.30227 12C1.30227 6.10185 6.09114 1.32097 12 1.32097Z" fill="white"/>
</svg>
