<svg width="332" height="280" fill="none" xmlns="http://www.w3.org/2000/svg"><path d="M324.337 47.741a33.92 33.92 0 00-26.245-12.557c-31.755-.142-92.842-.393-145.199-.466-28.755-.039-51.396-.02-67.289.055-7.3.036-13.276.084-17.82.142l-1.733-8.05C62.694 11.3 48.702 0 32.776 0h-19.53C5.943 0 .022 5.92.022 13.225c0 7.304 5.921 13.225 13.226 13.225h19.53c3.549 0 6.67 2.52 7.415 5.99l4.048 18.796c.01.049.021.097.033.145L75.24 195.148c3.353 15.569 17.346 26.867 33.271 26.867h37.495a201.466 201.466 0 00-29.417 8.909c-12.778.87-22.877 11.503-22.877 24.505 0 13.001 10.999 24.568 24.569 24.568 13.569 0 24.568-10.999 24.568-24.568 0-3.426-.704-6.685-1.97-9.646a179.385 179.385 0 0197.18.076 24.523 24.523 0 00-1.933 9.573c0 13.569 10.999 24.568 24.568 24.568 13.57 0 24.569-10.999 24.569-24.568 0-13.57-10.286-23.838-23.231-24.532a200.74 200.74 0 00-29.347-8.882h41.095c16.114 0 30.142-11.461 33.353-27.25l24.155-118.761a33.919 33.919 0 00-6.948-28.263l-.003-.003z" fill="url(#paint0_linear_1969_16469)"/><defs><linearGradient id="paint0_linear_1969_16469" x1="286.951" y1="271.409" x2="114.357" y2="14.017" gradientUnits="userSpaceOnUse"><stop stop-color="#50BD38"/><stop offset="1" stop-color="#ABED44"/></linearGradient></defs></svg>