<svg width="214" height="50" fill="none" xmlns="http://www.w3.org/2000/svg"><g clip-path="url(#clip0_1_8079)"><g clip-path="url(#clip1_1_8079)"><path d="M32.025 12.87c.21.018.429.027.63.027a9.24 9.24 0 002.627-.381 9.29 9.29 0 002.416-1.108 9.707 9.707 0 002.828-2.78c-2.364-2.679-5.857-3.732-9.105-3.006.087.182.166.354.236.545.245.6.438 1.226.56 1.862.132.663.193 1.335.193 2.007 0 .673-.061 1.354-.193 2.008a8.531 8.531 0 01-.201.817l.009.01z" fill="#84B626"/><path d="M28.19 18.293a9.652 9.652 0 002.592-2.689c.35-.527.648-1.099.884-1.69a10.53 10.53 0 00.56-1.861c.132-.654.193-1.326.193-2.008 0-.68-.061-1.344-.193-2.007a10.565 10.565 0 00-.56-1.862l-.236-.545c-1.401.31-2.75.963-3.949 1.944-3.59 2.97-4.579 8.074-2.618 12.189a8.692 8.692 0 001.699-.563 8.78 8.78 0 001.628-.918v.01z" fill="#84B626"/><path d="M25.476 9.528c.044.045.08.09.123.145.166-.236.324-.463.499-.681a10.82 10.82 0 011.383-1.408 9.359 9.359 0 012.863-1.635 9.22 9.22 0 011.085-.309C29.95 2.543 26.965.363 23.473.118l-.106.409a10.046 10.046 0 00-.184 3.851c.088.636.237 1.253.43 1.853.21.6.464 1.19.77 1.735.306.554.674 1.08 1.085 1.562h.01zm-2.898-7.067a9.635 9.635 0 00-.28-1.934c-.035-.136-.061-.273-.105-.409-3.493.245-6.47 2.416-7.95 5.513.369.082.736.182 1.086.31a9.36 9.36 0 012.863 1.634 9.749 9.749 0 011.882 2.089 10.667 10.667 0 001.208-1.708 10.193 10.193 0 001.209-3.587c.087-.636.122-1.28.087-1.917v.01z" fill="#84B626"/><path d="M7.967 11.417a9.6 9.6 0 002.416 1.108 9.195 9.195 0 002.627.382c.7 0 1.41-.082 2.092-.246a9.67 9.67 0 002.057-.744 10.5 10.5 0 001.655-1.054 9.892 9.892 0 001.26-1.19 9.694 9.694 0 00-1.882-2.08C14.218 4.305 8.518 4.813 5.14 8.656c.237.354.5.69.77 1.008a9.977 9.977 0 002.058 1.771v-.018z" fill="#84B626"/><path d="M21.764 16.15a10.668 10.668 0 00-.411-3.78 10.666 10.666 0 00-.718-1.77 10.056 10.056 0 00-.56-.936 9.333 9.333 0 01-1.261 1.19 9.494 9.494 0 01-3.712 1.798 9.976 9.976 0 01-1.462.218c.99 3.46 3.738 6.131 7.161 6.894.263-.554.482-1.135.64-1.726.166-.617.28-1.253.332-1.889h-.009z" fill="#84B626"/><path d="M17.658 21.916a10.092 10.092 0 00-.971-1.317 9.17 9.17 0 00-1.165-1.117 8.845 8.845 0 00-1.322-.908 9.53 9.53 0 00-1.444-.672 10.474 10.474 0 00-1.541-.418 9.38 9.38 0 00-.998-.127c.087.581.131 1.172.114 1.762a10.297 10.297 0 01-.245 1.998 10.042 10.042 0 01-1.27 3.152c-.061.109-.131.209-.201.309 3.221 1.353 6.942.79 9.656-1.517a8.423 8.423 0 00-.613-1.145zm-7.975-6.603a10.87 10.87 0 00-.823-1.707 11.037 11.037 0 00-1.13-1.517 9.817 9.817 0 00-1.392-1.262 9.098 9.098 0 00-1.628-.981c-.123-.064-.254-.118-.376-.173-2.005 2.98-2.215 6.767-.806 9.891.149-.136.298-.254.455-.372a9.4 9.4 0 011.637-.981c.587-.273 1.209-.49 1.839-.645a9.536 9.536 0 012.145-.245c.201 0 .411 0 .613.018-.009-.064-.027-.127-.035-.182a10.29 10.29 0 00-.49-1.853l-.01.01z" fill="#97CBE9"/><path d="M.744 28.847c.543 0 1.086-.046 1.611-.146a8.998 8.998 0 001.54-.418 9 9 0 001.445-.672c.464-.263.902-.572 1.322-.908a9.24 9.24 0 001.165-1.126 10.042 10.042 0 002.241-4.469c.14-.663.228-1.326.245-1.998a9.883 9.883 0 00-.114-1.762 9.522 9.522 0 00-2.757.227C2.504 18.755-.665 23.697.114 28.828c.21.019.42.028.63.028v-.01z" fill="#97CBE9"/><path d="M7.363 36.358c.035-.654.122-1.299.28-1.926.158-.654.376-1.29.665-1.898a9.879 9.879 0 011.541-2.38 6.393 6.393 0 00-.648-.345 9.272 9.272 0 00-2.005-.708 9.6 9.6 0 00-2.092-.236c-.525 0-1.05.045-1.567.136a9.93 9.93 0 00-1.54.4 9.52 9.52 0 00-1.594.753c.998 3.48 3.712 6.013 6.951 6.822 0-.2 0-.391.009-.6v-.018zm9.218-2.28a10.33 10.33 0 001.121-1.508 9.81 9.81 0 00.823-1.707c.219-.6.394-1.226.5-1.844a10.16 10.16 0 00.14-1.844c-3.406-.844-6.987.318-9.316 2.98.412.245.806.526 1.182.826a10.01 10.01 0 011.576 1.617 10.185 10.185 0 011.69 3.351 8.26 8.26 0 00.884-.581 9.41 9.41 0 001.4-1.272v-.018z" fill="#84B626"/><path d="M13.543 43.542c.298-.563.535-1.153.727-1.77a11.3 11.3 0 00.377-1.863 9.96 9.96 0 00.026-1.907 10.872 10.872 0 00-.315-1.898 10.303 10.303 0 00-.692-1.817 9.866 9.866 0 00-1.05-1.698 9.972 9.972 0 00-1.576-1.617c-.377-.3-.77-.581-1.182-.827a9.727 9.727 0 00-1.55 2.38c-2.206 4.741-.455 10.4 3.896 12.961.096-.109.193-.218.28-.336a9.41 9.41 0 001.06-1.617v.01z" fill="#84B626"/><path d="M21.642 43.542a9.881 9.881 0 01-1.541-2.38 9.84 9.84 0 01-.657-1.889 9.615 9.615 0 01-.166-.844 1.882 1.882 0 00-.166.063 9.608 9.608 0 00-1.629.909c-.508.354-.99.762-1.418 1.217-.43.454-.832.953-1.164 1.471a9.967 9.967 0 00-.885 1.69 10.53 10.53 0 00-.56 1.861c-.026.146-.053.291-.07.436 3.248 1.354 6.837.736 9.464-1.39a9.677 9.677 0 01-1.2-1.144h-.008zm4.78-8.129a10.19 10.19 0 00-1.208-3.588 10.023 10.023 0 00-1.086-1.561A9.594 9.594 0 0022.832 29c-2.757 2.225-4.114 5.867-3.572 9.41a9.272 9.272 0 011.637-.509c.63-.127 1.288-.2 1.935-.2a9.85 9.85 0 011.935.2c.552.118 1.112.29 1.637.509a10.105 10.105 0 00.009-2.998h.009z" fill="#97CBE9"/><path d="M31.666 43.778a9.915 9.915 0 00-2.057-3.16c-.43-.445-.91-.854-1.419-1.217a8.733 8.733 0 00-1.628-.909 9.657 9.657 0 00-1.795-.581 9.783 9.783 0 00-1.935-.2c-.656 0-1.295.073-1.934.2a9.3 9.3 0 00-1.637.518c.14.926.42 1.843.831 2.743 2.206 4.75 7.564 6.848 12.204 4.913-.026-.145-.044-.29-.078-.436a10.58 10.58 0 00-.56-1.861l.008-.01z" fill="#97CBE9"/><path d="M33.767 28.374a9.394 9.394 0 00-2.416-1.099 9.135 9.135 0 00-4.71-.136c-.044.01-.088.027-.132.036-.044 3.633 1.848 7.003 4.868 8.765a10.193 10.193 0 011.69-3.351c.472-.6.998-1.145 1.575-1.626.377-.3.77-.582 1.182-.818a9.927 9.927 0 00-2.048-1.77h-.01zm2.163 15.05c.402-.481.77-1.008 1.085-1.562a10.182 10.182 0 001.208-3.588 9.4 9.4 0 00.096-1.317 9.659 9.659 0 01-2.224.273 8.931 8.931 0 01-2.135-.254 9.22 9.22 0 01-2.583-1.027c-.945 3.297-.193 6.94 2.101 9.555a9.76 9.76 0 002.469-2.08h-.018z" fill="#84B626"/><path d="M35.816 30.145a9.878 9.878 0 011.54 2.38c.28.608.508 1.244.657 1.898a10.2 10.2 0 01.271 1.926c.01.2.018.4.01.6.314-.082.63-.173.936-.282.49-.182.99-.409 1.444-.672a9.498 9.498 0 001.314-.909 10.56 10.56 0 001.164-1.117 10.07 10.07 0 002.084-3.824 9.286 9.286 0 00-9.447.01l.027-.01z" fill="#84B626"/><path d="M42.145 19.573a7.357 7.357 0 01-.262.527 9.242 9.242 0 01-1.06 1.617c-.411.518-.884.99-1.392 1.408a9.359 9.359 0 01-2.381 1.444c.236.354.5.7.78 1.008.358.409.743.781 1.164 1.126a9.582 9.582 0 002.766 1.58 9.22 9.22 0 003.16.564c.21 0 .42 0 .63-.028.544-3.578-.84-7.075-3.405-9.246z" fill="#97CBE9"/><path d="M39.326 10.826c-.499.373-.963.8-1.392 1.263-.42.463-.797.972-1.12 1.517a10.183 10.183 0 00-.832 1.707 9.624 9.624 0 00-.5 1.853 11.118 11.118 0 00-.148 1.944c.017.672.096 1.335.245 1.998a10.043 10.043 0 001.27 3.152c.06.109.13.2.192.309a9.445 9.445 0 002.381-1.444c3.975-3.288 4.763-9.174 1.9-13.443a4.795 4.795 0 00-.376.173c-.57.263-1.12.6-1.629.98l.01-.009z" fill="#97CBE9"/><path d="M34.459 17.475a9.316 9.316 0 00-2.995 1.09c-.463.263-.91.563-1.321.908a9.102 9.102 0 00-1.156 1.117c-.359.41-.692.854-.98 1.317-.228.373-.43.754-.605 1.145 2.714 2.298 6.435 2.86 9.648 1.517-.07-.1-.131-.2-.193-.31a10.043 10.043 0 01-1.269-3.15 10.302 10.302 0 01-.245-2c-.009-.59.026-1.18.114-1.761a9.353 9.353 0 00-.998.127z" fill="#97CBE9"/><path d="M40.823 21.717c.403-.5.762-1.045 1.06-1.617.096-.173.183-.354.262-.527a9.38 9.38 0 00-3.93-1.998 9.158 9.158 0 00-2.75-.227 10.772 10.772 0 00-.122 1.762c.017.672.096 1.335.245 1.998a10.044 10.044 0 001.27 3.152c.06.109.13.2.192.309a9.623 9.623 0 002.381-1.444c.508-.418.98-.89 1.392-1.408z" fill="#2CA5D5"/><path d="M38.302 36.358a10.319 10.319 0 00-.928-3.824 10.638 10.638 0 00-1.54-2.38 9.744 9.744 0 00-2.759 2.444 10.162 10.162 0 00-1.69 3.342 9.402 9.402 0 002.583 1.026c.7.173 1.427.255 2.136.255.535 0 1.077-.055 1.611-.145.202-.037.403-.082.613-.128 0-.2 0-.39-.009-.6l-.017.01zM8.3 32.525a10.344 10.344 0 00-.946 3.824c-.009.2-.009.4-.009.6a9.105 9.105 0 004.369.017 9.279 9.279 0 002.582-1.035 9.889 9.889 0 00-.639-1.653 9.875 9.875 0 00-1.05-1.698 9.972 9.972 0 00-1.576-1.617c-.377-.3-.77-.582-1.182-.827a9.88 9.88 0 00-1.54 2.38l-.01.009zm9.892-24.941A9.36 9.36 0 0015.33 5.95a8.769 8.769 0 00-1.085-.309 10.293 10.293 0 00-.99 4.415c0 .98.14 1.925.395 2.824.49-.027.98-.1 1.462-.218a9.664 9.664 0 002.057-.745c.587-.3 1.138-.654 1.655-1.053a9.887 9.887 0 001.26-1.19 9.567 9.567 0 00-.499-.681 10.33 10.33 0 00-1.383-1.408h-.009z" fill="#4AA436"/><path d="M20.092 41.154c.403.871.92 1.67 1.55 2.38.359.417.761.799 1.19 1.144a9.739 9.739 0 002.74-3.524c.412-.89.692-1.817.832-2.743a9.8 9.8 0 00-1.637-.518 9.79 9.79 0 00-1.935-.2 9.86 9.86 0 00-1.934.2c-.56.118-1.112.3-1.637.509.043.29.096.572.166.853.157.645.376 1.281.656 1.89l.01.009zM10.085 21.117c.14-.663.228-1.326.245-1.998a9.883 9.883 0 00-.113-1.762 9.536 9.536 0 00-2.758.227 10.03 10.03 0 00-1.839.645c-.569.272-1.12.6-1.637.98-.149.119-.306.237-.455.373a9.878 9.878 0 002.705 3.552 9.445 9.445 0 002.382 1.444c.07-.1.13-.2.2-.31a10.044 10.044 0 001.27-3.15z" fill="#2CA5D5"/><path d="M27.481 7.584c-.508.418-.972.89-1.383 1.408a9.567 9.567 0 00-.5.681c.386.436.806.836 1.262 1.19a9.065 9.065 0 001.654 1.053 9.33 9.33 0 002.058.745 9.98 9.98 0 001.462.218c.254-.899.394-1.843.394-2.824 0-1.59-.36-3.08-.99-4.415a9.22 9.22 0 00-1.085.31 9.36 9.36 0 00-2.863 1.634h-.009z" fill="#4AA436"/><path d="M198.478 13.424c-1.331-.154-3.756-.345-4.719-.427-5.787-.417-8.947 3.924-8.921 7.966 0 .59.158 1.771.298 2.316.087-3.906 3.204-9.255 11.854-7.52 7.555 1.507 6.163-4.197 5.603-4.869 0 0-1.174-2.879-7.214-2.879h-7.95c-.341 0-.752.272-.752.808v1.036c0 .4.323.78.744.78h8.833c2.163 0 3.082 1.445 3.143 1.7.289 1.062-.525 1.135-.928 1.09h.009zm-11.259 14.323c5.875 3.606 11.898 1.018 13.623-.335v1.062c0 .436.35.79.744.79h2.188c.482 0 .78-.363.78-.844V14.66c0 10.1-9.105 16.103-17.335 13.078v.01z" fill="#4DAD36"/><path d="M166.978 21.326c-.131-.7.342-1.035.683-1.035 3.537.018 13.124 0 13.763 0 1.882 0 2.25-1.772 2.232-2.217-.306-5.604-4.78-10.072-10.295-10.072-5.516 0-10.305 4.759-10.305 10.635 0 .464-.201 5.069 3.844 8.075 6.329 4.687 18.962 2.134 30.151-7.92-10.051 8.283-28.488 10.745-30.073 2.516v.018zm-.192-5.386c1.059-2.688 3.589-4.605 6.575-4.605 2.985 0 5.498 1.89 6.557 4.55.219.554-.149 1.109-.718 1.109h-11.688c-.612 0-.893-.654-.726-1.054zm-20.863-8.083c-5.681 0-10.304 4.768-10.304 10.635v9.928c0 .354.272.78.762.78h1.707c.324 0 .735-.253.735-.853v-6.812c0-1.698.009-3.052.009-3.052 0-4.032 3.169-7.311 7.091-7.311 3.923 0 7.092 3.279 7.092 7.311v9.928c0 .354.262.78.761.78h1.708c.323 0 .726-.254.726-.853 0-.409 0-4.269.018-6.812v-3.052c0-5.867-4.614-10.636-10.305-10.636v.019zm15.172 1.535c0-2.952-.008-7.62-.008-8.184 0-.763-.613-.99-.893-.99h-1.349c-.648 0-.963.509-.963 1.035V28.23c0 .527.298 1.026.963 1.026.666 0 .85-.009 1.349 0 .28 0 .893-.236.893-.999 0-.554 0-14.169.008-18.201v-.673.01zm-72.9-.982c-2.565 2.108-4.15 5.405-4.15 9.228v10.563c0 .527.298 1.027.954 1.027h1.349c.289 0 .893-.236.893-.99 0-.818.017-10.6.017-10.6 0-1.852.482-3.642 1.523-4.904.5-.609.648-1.1.648-2.135V9.037c0-.754-.77-1.026-1.243-.636l.009.01zm-8.265 6.476h-6.706c-.543 0-.937.436-.937.963v1.354c0 .762.596 1.017.885 1.017h4.745c-1.401 4.096-5.122 7.03-9.5 7.03-5.585 0-10.11-4.75-10.11-10.609 0-5.858 4.525-10.608 10.11-10.608a9.843 9.843 0 018.747 5.295c.219.418.823 1.171 1.795 1.171.709 0 1.348.037 1.698 0 .508-.036.99-.58.64-1.489C79.256 3.697 74.23 0 68.426 0c-7.713 0-13.955 6.549-13.955 14.641 0 8.093 6.242 14.641 13.955 14.641 6.767 0 12.405-5.059 13.674-11.77.193-1.027-.42-2.644-2.162-2.626h-.009zm21.467-6.92c-5.69 0-10.305 4.768-10.305 10.635 0 5.868 4.614 10.636 10.305 10.636 3.449 0 6.522-1.744 8.378-4.45.359-.509-.07-1.254-.595-1.236-.578.028-.928 0-1.62 0-1.059 0-1.471.527-1.751.772a6.887 6.887 0 01-4.403 1.599c-2.96 0-5.42-1.916-6.558-4.541-.219-.518.105-1.127.683-1.127 3.143.01 13.264 0 13.938 0 1.882 0 2.25-1.77 2.223-2.216-.306-5.604-4.78-10.072-10.295-10.072zm5.848 8.991H95.549c-.622 0-.893-.654-.736-1.062 1.06-2.689 3.59-4.596 6.575-4.596 2.985 0 5.498 1.88 6.557 4.55.219.554-.157 1.108-.709 1.108h.009zm16.45-8.991c-5.69 0-10.304 4.768-10.304 10.635 0 5.868 4.614 10.636 10.304 10.636 3.449 0 6.522-1.744 8.378-4.45.351-.509-.07-1.254-.595-1.236-.586.028-.928 0-1.628 0-1.06 0-1.462.527-1.751.772a6.888 6.888 0 01-4.404 1.599c-2.959 0-5.428-1.916-6.557-4.541-.219-.518.096-1.127.683-1.127 3.143.01 13.263 0 13.937 0 1.882 0 2.25-1.77 2.224-2.216-.306-5.604-4.789-10.072-10.287-10.072zm5.848 8.991h-11.696c-.622 0-.893-.654-.735-1.062 1.059-2.689 3.589-4.596 6.574-4.596 2.986 0 5.498 1.88 6.558 4.55.219.554-.149 1.108-.709 1.108h.008zm83.468-9.137h-.911c-.543 0-.604-.518-.534-.763.254-.899.604-1.607 1.191-2.189.455-.463.586-1.09.586-1.707V1.898c-.035-1.126-1.138-1.108-1.497-.78-1.724 1.552-3.064 3.55-3.607 5.948-.061.255-.324.763-.849.763h-1.278c-.797 0-1.086.318-1.086.936v1.18c0 .827.21 1.245 1.086 1.245h1.173c.394 0 .665.227.665.863v16.303c0 .518.298 1.026.963 1.026h1.34a.934.934 0 00.902-.99v-16.54c.061-.49.306-.662.639-.662h1.33c.508 0 .858-.527.858-.917V8.81c0-.708-.525-.972-.989-.972l.018-.018z" fill="#4DAD36"/><path d="M84.133 46.73a.662.662 0 01-.49-.209.698.698 0 01-.202-.508v-9.228a.683.683 0 01.692-.709h3.143c.595 0 1.12.118 1.567.364.455.245.805.572 1.068.999.254.426.385.917.385 1.471 0 .445-.114.845-.35 1.208a2.46 2.46 0 01-.954.854 2.554 2.554 0 011.392.863c.35.426.525.99.525 1.68 0 .627-.14 1.18-.43 1.662a3.041 3.041 0 01-1.19 1.135 3.657 3.657 0 01-1.75.418h-3.415.009zm.683-6.267h2.46c.499 0 .91-.127 1.225-.381.316-.255.482-.645.482-1.163s-.158-.9-.482-1.153c-.324-.246-.726-.373-1.225-.373h-2.46v3.07zm0 4.96h2.731c.403 0 .762-.073 1.068-.219.307-.145.543-.363.727-.645.184-.281.263-.635.263-1.053 0-.39-.088-.718-.263-.972a1.689 1.689 0 00-.727-.581c-.306-.137-.665-.2-1.068-.2h-2.731v3.669zm10.934 1.362c-.709 0-1.34-.164-1.882-.482a3.41 3.41 0 01-1.278-1.335c-.307-.563-.464-1.217-.464-1.953 0-.735.157-1.398.464-1.97a3.41 3.41 0 011.278-1.336c.543-.318 1.173-.481 1.882-.481.71 0 1.322.163 1.865.481a3.41 3.41 0 011.278 1.335c.306.573.464 1.227.464 1.971 0 .745-.157 1.39-.464 1.953a3.35 3.35 0 01-1.278 1.335c-.543.318-1.173.482-1.882.482h.017zm0-1.227c.455 0 .858-.109 1.208-.327a2.29 2.29 0 00.823-.899c.202-.381.298-.817.298-1.326 0-.508-.096-.944-.298-1.326a2.317 2.317 0 00-.823-.908 2.24 2.24 0 00-1.208-.327 2.24 2.24 0 00-1.208.327c-.35.218-.63.517-.832.908a2.84 2.84 0 00-.306 1.326c0 .5.096.945.306 1.326a2.238 2.238 0 002.04 1.226zm5.936 1.172c-.21 0-.377-.054-.49-.172-.114-.118-.167-.282-.167-.509v-6.094c0-.218.053-.382.167-.51.113-.117.28-.172.49-.172.21 0 .385.055.49.173.105.109.167.282.167.509v6.094c0 .218-.053.39-.167.509-.114.118-.271.172-.49.172zm-.009-4.66c0-.544.131-1.035.385-1.462a2.876 2.876 0 012.487-1.407c.525 0 .919.09 1.173.263.254.182.359.39.297.636a.53.53 0 01-.148.29.525.525 0 01-.254.128.63.63 0 01-.315-.019c-.561-.118-1.068-.127-1.515-.027-.446.1-.797.282-1.059.563-.254.273-.385.618-.385 1.036h-.675.009zm6.076 4.67a.636.636 0 01-.482-.2.685.685 0 01-.192-.5v-6.076c0-.21.061-.382.192-.51a.663.663 0 01.482-.19.67.67 0 01.49.19c.123.128.184.3.184.51v6.076c0 .2-.061.363-.184.5a.627.627 0 01-.49.2zm5.402 0a.634.634 0 01-.482-.2.685.685 0 01-.192-.5v-3.352c0-.517-.088-.944-.272-1.271a1.716 1.716 0 00-.744-.727 2.35 2.35 0 00-1.068-.236c-.368 0-.7.073-.998.227a1.916 1.916 0 00-.709.618 1.56 1.56 0 00-.263.89h-.832a2.927 2.927 0 011.497-2.607c.464-.263.99-.4 1.568-.4a3.36 3.36 0 011.619.4c.473.273.858.663 1.13 1.18.28.519.411 1.154.411 1.908v3.352c0 .2-.061.363-.193.5a.634.634 0 01-.481.199l.009.018zm5.647-6.023a.62.62 0 01-.447-.163.546.546 0 01-.175-.409c0-.181.052-.327.175-.436a.62.62 0 01.447-.163h3.248a.62.62 0 01.446.163.572.572 0 01.166.436c0 .164-.052.3-.166.409a.62.62 0 01-.446.163h-3.248zm1.208 6.013a.625.625 0 01-.447-.19.684.684 0 01-.201-.51v-6.72c0-.654.122-1.227.376-1.708a2.828 2.828 0 011.042-1.126c.447-.264.963-.4 1.55-.4.192 0 .35.055.481.173a.614.614 0 01.193.454.58.58 0 01-.193.445.653.653 0 01-.481.182 1.58 1.58 0 00-.858.227 1.537 1.537 0 00-.569.645c-.14.272-.202.599-.202.962v6.858a.705.705 0 01-.184.508c-.122.127-.288.191-.507.191v.01zm6.715.055c-.71 0-1.34-.164-1.883-.482a3.412 3.412 0 01-1.278-1.335c-.306-.563-.464-1.217-.464-1.953 0-.735.158-1.398.464-1.97a3.412 3.412 0 011.278-1.336c.543-.318 1.173-.481 1.883-.481.709 0 1.322.163 1.864.481.543.318.972.772 1.278 1.335.307.573.464 1.227.464 1.971 0 .745-.157 1.39-.464 1.953a3.346 3.346 0 01-1.278 1.335c-.542.318-1.173.482-1.882.482h.018zm0-1.227c.455 0 .858-.109 1.208-.327.35-.218.621-.517.823-.899.201-.381.297-.817.297-1.326 0-.508-.096-.944-.297-1.326a2.323 2.323 0 00-.823-.908 2.239 2.239 0 00-1.208-.327c-.456 0-.858.109-1.209.327a2.27 2.27 0 00-.831.908c-.202.39-.307.827-.307 1.326 0 .5.097.945.307 1.326.201.382.472.681.831.9a2.25 2.25 0 001.209.326zm5.935 1.172c-.21 0-.376-.054-.49-.172-.114-.118-.167-.282-.167-.509v-6.094c0-.218.053-.382.167-.51.114-.117.28-.172.49-.172.21 0 .385.055.49.173.105.109.167.282.167.509v6.094c0 .218-.053.39-.167.509-.114.118-.271.172-.49.172zm-.009-4.66c0-.544.132-1.035.385-1.462a2.883 2.883 0 012.487-1.407c.525 0 .919.09 1.173.263.254.182.359.39.298.636a.538.538 0 01-.149.29.525.525 0 01-.254.128.631.631 0 01-.315-.019c-.561-.118-1.068-.127-1.515-.027-.446.1-.797.282-1.059.563-.254.273-.385.618-.385 1.036h-.674.008zm9.744 4.66a.661.661 0 01-.49-.209.699.699 0 01-.201-.508v-9.228a.684.684 0 01.691-.709h3.143c.595 0 1.121.118 1.567.364.456.245.806.572 1.068.999.254.426.386.917.386 1.471 0 .445-.114.845-.351 1.208a2.454 2.454 0 01-.954.854 2.554 2.554 0 011.392.863c.35.426.525.99.525 1.68 0 .627-.14 1.18-.429 1.662a3.04 3.04 0 01-1.19 1.135 3.66 3.66 0 01-1.751.418h-3.415.009zm.683-6.267h2.46c.499 0 .911-.127 1.226-.381.315-.255.481-.645.481-1.163s-.157-.9-.481-1.153c-.324-.246-.727-.373-1.226-.373h-2.46v3.07zm0 4.96h2.732a2.47 2.47 0 001.068-.219c.306-.145.542-.363.726-.645.184-.281.263-.635.263-1.053 0-.39-.088-.718-.263-.972a1.689 1.689 0 00-.726-.581c-.307-.137-.666-.2-1.068-.2h-2.732v3.669zm11.049 1.362c-.727 0-1.375-.164-1.935-.482a3.483 3.483 0 01-1.331-1.335c-.324-.563-.481-1.217-.481-1.953 0-.735.148-1.398.455-1.97.306-.564.718-1.018 1.252-1.336.534-.318 1.147-.481 1.838-.481.692 0 1.27.154 1.76.472.49.318.867.745 1.121 1.299.253.554.385 1.18.385 1.898a.566.566 0 01-.167.427.615.615 0 01-.437.173h-5.297v-1.09h5.253l-.543.381a2.989 2.989 0 00-.262-1.217 2.087 2.087 0 00-.71-.854c-.306-.209-.682-.318-1.12-.318-.499 0-.928.118-1.278.346a2.17 2.17 0 00-.806.935c-.184.4-.271.845-.271 1.344 0 .5.105.945.332 1.335.219.391.526.7.911.927a2.582 2.582 0 002.162.191c.28-.11.517-.227.692-.364a.691.691 0 01.429-.154c.149 0 .289.045.403.145.148.136.227.282.236.454 0 .164-.061.3-.21.418a3.55 3.55 0 01-1.112.6 3.859 3.859 0 01-1.269.227v-.018zm7.187 0a3.054 3.054 0 01-1.724-.5 3.4 3.4 0 01-1.2-1.353c-.298-.563-.438-1.208-.438-1.926 0-.717.158-1.362.482-1.934a3.591 3.591 0 011.304-1.354 3.533 3.533 0 011.848-.5c.682 0 1.295.164 1.838.5a3.7 3.7 0 011.296 1.354c.324.572.481 1.217.481 1.934h-.516c0 .718-.149 1.363-.438 1.926a3.54 3.54 0 01-1.199 1.353 3.06 3.06 0 01-1.725.5h-.009zm.263-1.227c.446 0 .849-.108 1.199-.336a2.3 2.3 0 00.832-.917c.201-.381.306-.817.306-1.299 0-.481-.105-.926-.306-1.317a2.428 2.428 0 00-.832-.917 2.138 2.138 0 00-1.199-.336c-.455 0-.832.109-1.191.336a2.315 2.315 0 00-.84.917c-.21.39-.307.827-.307 1.317s.105.918.307 1.299c.201.39.49.69.84.917.35.227.753.336 1.191.336zm2.941 1.19a.634.634 0 01-.481-.2.686.686 0 01-.193-.5V43.96l.254-1.444 1.095.49v3.043c0 .2-.062.363-.193.5a.635.635 0 01-.482.2zm5.358.046a3.277 3.277 0 01-1.619-.4c-.482-.263-.858-.663-1.13-1.18-.28-.518-.411-1.154-.411-1.908v-3.351c0-.2.061-.364.192-.5a.67.67 0 01.482-.2c.193 0 .35.064.481.2a.72.72 0 01.193.5v3.351c0 .509.088.927.28 1.263.184.336.438.58.744.735.316.155.674.236 1.068.236s.71-.072 1.007-.227a1.91 1.91 0 00.701-.626 1.56 1.56 0 00.262-.89h.832c0 .563-.131 1.071-.403 1.525-.271.454-.63.818-1.094 1.081a3.1 3.1 0 01-1.567.4l-.018-.01zm2.907-.073a.636.636 0 01-.482-.2.67.67 0 01-.192-.5v-6.075c0-.21.061-.382.192-.51a.663.663 0 01.482-.19c.192 0 .368.064.49.19.123.128.184.3.184.51v6.076c0 .2-.061.363-.184.5a.627.627 0 01-.49.2zm2.399-6.004a.62.62 0 01-.447-.163.538.538 0 01-.166-.409c0-.182.052-.327.166-.436a.62.62 0 01.447-.163h3.038a.62.62 0 01.446.163.578.578 0 01.175.436c0 .164-.061.3-.175.409a.62.62 0 01-.446.163h-3.038zm2.915 6.013c-.438 0-.832-.118-1.182-.345a2.388 2.388 0 01-.832-.945 2.977 2.977 0 01-.297-1.353v-6.503c0-.2.061-.364.184-.49a.626.626 0 01.472-.191c.193 0 .351.063.473.19a.676.676 0 01.184.49v6.504c0 .363.096.672.289.917.192.245.429.373.709.373h.446a.52.52 0 01.403.19.75.75 0 01.167.49c0 .2-.07.364-.219.491a.829.829 0 01-.561.191h-.236v-.009zm5.165-.3c-.166.073-.324.082-.464.019-.148-.055-.262-.173-.35-.346l-3.011-5.93a.589.589 0 01-.035-.5.66.66 0 01.35-.345.576.576 0 01.473-.019.647.647 0 01.341.346l2.88 5.93a.803.803 0 01.097.5c-.018.164-.114.273-.281.345zM181.713 50a.798.798 0 01-.315-.082c-.386-.182-.491-.472-.316-.863l4.01-9.391c.175-.382.455-.49.832-.327.394.172.508.463.333.863l-4.019 9.373c-.105.282-.28.418-.516.418l-.009.009z" fill="#4AA436"/></g></g><defs><clipPath id="clip0_1_8079"><path fill="#fff" d="M0 0h214v50H0z"/></clipPath><clipPath id="clip1_1_8079"><path fill="#fff" d="M0 0h214v50H0z"/></clipPath></defs></svg>