<svg width="214" height="50" viewBox="0 0 214 50" fill="none" xmlns="http://www.w3.org/2000/svg">
<g clip-path="url(#clip0_1_8079)">
<g clip-path="url(#clip1_1_8079)">
<path d="M32.0247 12.8702C32.2348 12.8883 32.4537 12.8974 32.6551 12.8974C33.5393 12.8974 34.4235 12.7702 35.2815 12.5159C36.1307 12.2616 36.9449 11.8983 37.6978 11.4078C38.4594 10.9174 39.1511 10.327 39.7551 9.63673C40.0353 9.31884 40.2892 8.98278 40.5255 8.62856C38.1618 5.94918 34.6686 4.89559 31.4207 5.6222C31.5082 5.80385 31.587 5.97642 31.657 6.16716C31.9022 6.76661 32.0948 7.39332 32.2173 8.0291C32.3487 8.69214 32.4099 9.36425 32.4099 10.0364C32.4099 10.7085 32.3487 11.3897 32.2173 12.0436C32.1648 12.3161 32.0948 12.5977 32.016 12.8611L32.0247 12.8702Z" fill="#84B626"/>
<path d="M28.1902 18.2926C28.698 17.9383 29.1795 17.5296 29.6085 17.0846C30.0462 16.6304 30.4402 16.1309 30.7816 15.6041C31.1318 15.0773 31.4295 14.5051 31.6658 13.9147C31.911 13.3153 32.0948 12.6886 32.2261 12.0528C32.3575 11.3988 32.4187 10.7267 32.4187 10.0455C32.4187 9.36432 32.3575 8.70128 32.2261 8.03825C32.0948 7.40247 31.911 6.77576 31.6658 6.17631C31.587 5.99465 31.5083 5.813 31.4295 5.63135C30.0287 5.94016 28.6805 6.59411 27.4811 7.57504C23.8917 10.5451 22.9024 15.6495 24.8634 19.764C25.4412 19.6368 26.019 19.4461 26.5618 19.2008C27.1309 18.9556 27.6824 18.6468 28.1902 18.2835V18.2926Z" fill="#84B626"/>
<path d="M25.4763 9.52779C25.5201 9.5732 25.5551 9.61862 25.5989 9.67311C25.7652 9.43697 25.9228 9.2099 26.0979 8.99192C26.5093 8.48329 26.9821 8.01099 27.4811 7.58411C28.3478 6.86658 29.3108 6.31253 30.3439 5.94923C30.7028 5.82207 31.0618 5.72216 31.4295 5.64042C29.9499 2.54323 26.9646 0.363396 23.4715 0.118164C23.4364 0.254404 23.4014 0.390644 23.3664 0.526883C23.2088 1.15359 23.1213 1.80754 23.0863 2.46149C23.06 3.09727 23.0863 3.74214 23.1826 4.37793C23.2701 5.01371 23.4189 5.63133 23.6115 6.23079C23.8216 6.83024 24.0755 7.42062 24.3819 7.96558C24.6884 8.51962 25.0561 9.04641 25.4675 9.52779H25.4763Z" fill="#84B626"/>
<path d="M22.5784 2.46149C22.5521 1.80754 22.4558 1.16267 22.2982 0.526883C22.2632 0.390644 22.2369 0.254404 22.1932 0.118164C18.7 0.363396 15.7234 2.53415 14.2439 5.63133C14.6116 5.71308 14.9793 5.81299 15.3295 5.94014C16.3625 6.30345 17.3256 6.85749 18.1923 7.57502C18.7 7.99282 19.164 8.46512 19.5755 8.98283C19.7506 9.20082 19.9169 9.42788 20.0745 9.66403C20.1183 9.61862 20.1533 9.5732 20.1971 9.51871C20.5998 9.03733 20.9675 8.51053 21.2827 7.95649C21.5891 7.41153 21.8517 6.82116 22.0531 6.22171C22.2545 5.62225 22.4033 4.99555 22.4908 4.36884C22.5784 3.73306 22.6134 3.08819 22.5784 2.45241V2.46149Z" fill="#84B626"/>
<path d="M7.96693 11.417C8.71984 11.8984 9.53402 12.2708 10.3832 12.5251C11.2412 12.7794 12.1167 12.9066 13.0096 12.9066C13.71 12.9066 14.4191 12.8248 15.102 12.6613C15.8024 12.4978 16.494 12.2435 17.1594 11.9166C17.7459 11.6168 18.2975 11.2626 18.814 10.863C19.2605 10.5087 19.6895 10.1091 20.0747 9.67314C19.5582 8.90112 18.9278 8.20175 18.1924 7.59321C14.2178 4.30529 8.51848 4.81392 5.13916 8.65589C5.37554 9.01011 5.63818 9.34617 5.90957 9.66406C6.51365 10.3453 7.20527 10.9447 7.96693 11.4352V11.417Z" fill="#84B626"/>
<path d="M21.7643 16.1491C21.808 15.5133 21.7993 14.8684 21.7292 14.2417C21.6592 13.615 21.5366 12.9792 21.3528 12.3707C21.1689 11.7622 20.9238 11.1627 20.6349 10.5996C20.4686 10.2817 20.276 9.96379 20.0746 9.66406C19.6894 10.1 19.2692 10.4997 18.8139 10.8539C18.2974 11.2626 17.7458 11.6168 17.1593 11.9075C16.5027 12.2345 15.8023 12.4888 15.1019 12.6523C14.6204 12.7612 14.1302 12.8339 13.6399 12.8702C14.6292 16.3307 17.3782 19.001 20.8012 19.764C21.0639 19.2099 21.2827 18.6286 21.4403 18.0383C21.6067 17.4206 21.7205 16.7849 21.773 16.1491H21.7643Z" fill="#84B626"/>
<path d="M17.6584 21.9164C17.3695 21.4532 17.0455 21.0082 16.6866 20.5994C16.3276 20.1907 15.9424 19.8183 15.5222 19.4823C15.1107 19.1371 14.6642 18.8374 14.2002 18.574C13.7362 18.3106 13.2547 18.0835 12.7557 17.9019C12.2479 17.7202 11.7314 17.584 11.2149 17.4841C10.8822 17.4205 10.5495 17.3842 10.2169 17.3569C10.3044 17.9382 10.3482 18.5286 10.3307 19.119C10.3132 19.7911 10.2344 20.4541 10.0855 21.1172C9.8404 22.2434 9.41142 23.3061 8.8161 24.2688C8.75482 24.3778 8.68478 24.4777 8.61475 24.5776C11.8365 25.931 15.5572 25.3678 18.2712 23.0608C18.0961 22.6703 17.8947 22.2797 17.6584 21.9164Z" fill="#97CBE9"/>
<path d="M9.68268 15.3134C9.45506 14.7231 9.18366 14.1418 8.85973 13.6059C8.52706 13.07 8.1506 12.5614 7.73038 12.0891C7.31015 11.6259 6.8374 11.199 6.33838 10.8266C5.83061 10.4451 5.27906 10.1091 4.71001 9.84567C4.58744 9.78209 4.45612 9.72759 4.33355 9.6731C2.32873 12.6522 2.11861 16.4397 3.52812 19.5641C3.67695 19.4279 3.82578 19.3098 3.98336 19.1917C4.49114 18.8102 5.04268 18.4833 5.62049 18.2108C6.20706 17.9383 6.82864 17.7203 7.45898 17.5659C8.16811 17.4024 8.886 17.3207 9.60389 17.3207C9.80524 17.3207 10.0154 17.3207 10.2167 17.3389C10.208 17.2753 10.1905 17.2117 10.1817 17.1572C10.0766 16.5214 9.9103 15.9038 9.69143 15.3043L9.68268 15.3134Z" fill="#97CBE9"/>
<path d="M0.744182 28.8467C1.28697 28.8467 1.82976 28.8013 2.35505 28.7013C2.88033 28.6105 3.39686 28.4652 3.89587 28.2835C4.39489 28.1019 4.88516 27.8748 5.3404 27.6114C5.8044 27.348 6.24214 27.0392 6.66236 26.7032C7.08259 26.3671 7.46779 25.9856 7.82674 25.5769C8.18568 25.1682 8.51836 24.7231 8.79851 24.2599C9.39383 23.2972 9.82281 22.2345 10.0679 21.1082C10.208 20.4452 10.2956 19.7822 10.3131 19.1101C10.3306 18.5197 10.2868 17.9293 10.1993 17.348C9.29753 17.2935 8.36953 17.3571 7.44153 17.5751C2.50388 18.7558 -0.665326 23.6968 0.113843 28.8285C0.323956 28.8467 0.534069 28.8558 0.744182 28.8558V28.8467Z" fill="#97CBE9"/>
<path d="M7.36282 36.3579C7.39784 35.704 7.48539 35.0591 7.64297 34.4324C7.80056 33.7785 8.01942 33.1427 8.30833 32.5341C8.71105 31.6622 9.22757 30.8629 9.84916 30.1545C9.63904 30.0273 9.42018 29.9093 9.20131 29.8093C8.56222 29.5005 7.8881 29.2553 7.19648 29.1009C6.50486 28.9465 5.80448 28.8647 5.10411 28.8647C4.57883 28.8647 4.05354 28.9102 3.53702 29.001C3.02049 29.0918 2.49521 29.2281 1.99619 29.4006C1.44464 29.6004 0.910605 29.8548 0.402832 30.1545C1.40087 33.6331 4.11483 36.1672 7.35407 36.9756C7.35407 36.7757 7.35407 36.585 7.36282 36.3761V36.3579Z" fill="#84B626"/>
<path d="M16.5815 34.0782C16.993 33.6149 17.3782 33.1063 17.7021 32.5704C18.0348 32.0255 18.3062 31.4533 18.525 30.8629C18.7439 30.2634 18.919 29.6367 19.0241 29.0191C19.1291 28.4106 19.1729 27.793 19.1641 27.1753C15.7585 26.3307 12.1779 27.4932 9.84912 30.1544C10.2606 30.3997 10.6546 30.6812 11.031 30.981C11.6088 31.4533 12.1429 31.9982 12.6069 32.5977C13.0096 33.1245 13.3685 33.6967 13.6574 34.2961C13.9201 34.832 14.1302 35.377 14.2965 35.9492C14.6029 35.7766 14.9006 35.5768 15.1807 35.3679C15.6885 34.9955 16.1525 34.5686 16.5815 34.0963V34.0782Z" fill="#84B626"/>
<path d="M13.5435 43.5424C13.8412 42.9793 14.0776 42.3889 14.2702 41.7713C14.4453 41.1628 14.5766 40.5361 14.6466 39.9094C14.7167 39.2736 14.7254 38.6378 14.6729 38.002C14.6291 37.3662 14.5153 36.7304 14.3577 36.1037C14.1826 35.477 13.955 34.8685 13.6661 34.2872C13.3772 33.6877 13.0183 33.1155 12.6155 32.5887C12.1515 31.9893 11.6175 31.4443 11.0397 30.972C10.6632 30.6723 10.2693 30.3907 9.85781 30.1455C9.24498 30.8358 8.7197 31.6351 8.30823 32.5252C6.10205 37.2663 7.85299 42.9248 12.2041 45.4861C12.3004 45.3771 12.3967 45.2681 12.4842 45.1501C12.8869 44.6505 13.2459 44.1146 13.5435 43.5333V43.5424Z" fill="#84B626"/>
<path d="M21.6417 43.5422C21.0201 42.8338 20.5036 42.0345 20.1008 41.1626C19.8207 40.554 19.5931 39.9183 19.4442 39.2734C19.3742 38.9918 19.3217 38.7103 19.2779 38.4287C19.2254 38.4469 19.1728 38.465 19.1116 38.4923C18.5425 38.7375 17.9997 39.0463 17.4832 39.4006C16.9754 39.7548 16.4939 40.1635 16.0649 40.6176C15.6359 41.0718 15.2332 41.5713 14.9006 42.089C14.5504 42.6249 14.2527 43.1971 14.0163 43.7784C13.7712 44.3778 13.5873 45.0045 13.456 45.6403C13.4298 45.7857 13.4035 45.931 13.386 46.0763C16.634 47.4296 20.2234 46.812 22.8498 44.6867C22.4208 44.3415 22.0181 43.96 21.6504 43.5422H21.6417Z" fill="#97CBE9"/>
<path d="M26.4217 35.4133C26.3342 34.7866 26.1854 34.1599 25.984 33.5605C25.7826 32.961 25.52 32.3706 25.2136 31.8257C24.8984 31.2716 24.5395 30.7448 24.128 30.2635C23.734 29.8002 23.2963 29.3734 22.8323 29.001C20.0746 31.2262 18.7176 34.8684 19.2604 38.4106C19.7857 38.1926 20.3372 38.02 20.8975 37.902C21.5279 37.7748 22.1845 37.7022 22.8323 37.7022C23.4802 37.7022 24.1368 37.7748 24.7671 37.902C25.3186 38.02 25.8789 38.1926 26.4042 38.4106C26.4568 38.0564 26.4918 37.6931 26.5093 37.3298C26.5355 36.694 26.5093 36.0491 26.413 35.4133H26.4217Z" fill="#97CBE9"/>
<path d="M31.6659 43.7784C31.4295 43.188 31.1231 42.6158 30.7817 42.089C30.4403 41.5622 30.0463 41.0718 29.6086 40.6176C29.1796 40.1726 28.6981 39.7639 28.1903 39.4006C27.6825 39.0372 27.131 38.7375 26.5619 38.4923C25.9841 38.238 25.38 38.0472 24.7672 37.911C24.1369 37.7838 23.489 37.7112 22.8324 37.7112C22.1758 37.7112 21.5367 37.7838 20.8976 37.911C20.3373 38.0291 19.7858 38.2107 19.2605 38.4287C19.4006 39.3551 19.6807 40.2725 20.0922 41.1717C22.2984 45.9219 27.6563 48.02 32.2963 46.0854C32.27 45.9401 32.2525 45.7947 32.2175 45.6494C32.0861 45.0136 31.9023 44.3869 31.6572 43.7875L31.6659 43.7784Z" fill="#97CBE9"/>
<path d="M33.7669 28.3743C33.0053 27.8929 32.1998 27.5205 31.3506 27.2753C30.5014 27.021 29.6172 26.8938 28.733 26.8938C28.0326 26.8938 27.3235 26.9755 26.6406 27.139C26.5968 27.1481 26.5531 27.1663 26.5093 27.1754C26.4655 30.8084 28.3565 34.1781 31.3769 35.9401C31.5432 35.3679 31.7534 34.823 32.016 34.2871C32.3049 33.6876 32.6638 33.1154 33.0666 32.5886C33.5393 31.9892 34.0646 31.4442 34.6424 30.9628C35.0189 30.6631 35.4128 30.3815 35.8243 30.1454C35.2202 29.4642 34.5374 28.8647 33.7757 28.3743H33.7669Z" fill="#84B626"/>
<path d="M35.9294 43.4242C36.3322 42.9429 36.6999 42.4161 37.015 41.862C37.3214 41.3171 37.5841 40.7267 37.7854 40.1272C37.9868 39.5278 38.1356 38.9011 38.2232 38.2744C38.2845 37.8384 38.3195 37.3934 38.3195 36.9574C38.1181 37.0028 37.9168 37.0482 37.7066 37.0846C37.1726 37.1754 36.6298 37.2299 36.0958 37.2299C35.3779 37.2299 34.66 37.1481 33.9596 36.9756C33.3205 36.8302 32.7077 36.6122 32.1211 36.3398C31.876 36.2217 31.6221 36.0945 31.377 35.9492C30.4315 39.2462 31.1844 42.8884 33.4781 45.5042C33.8546 45.2771 34.2223 45.0319 34.5637 44.7594C35.0627 44.3688 35.5267 43.9147 35.947 43.4242H35.9294Z" fill="#84B626"/>
<path d="M35.8156 30.1453C36.4372 30.8538 36.9537 31.653 37.3564 32.525C37.6365 33.1335 37.8642 33.7693 38.013 34.4233C38.1618 35.05 38.2581 35.7039 38.2844 36.3488C38.2932 36.5486 38.3019 36.7484 38.2932 36.9482C38.6083 36.8665 38.9235 36.7757 39.2299 36.6667C39.7202 36.485 40.2192 36.258 40.6744 35.9946C41.1384 35.7312 41.5762 35.4223 41.9876 35.0863C42.3991 34.7502 42.7931 34.3688 43.152 33.9691C43.511 33.5604 43.8349 33.1154 44.1238 32.6521C44.6053 31.871 44.9817 31.0263 45.2356 30.1453C42.2678 28.4015 38.6696 28.456 35.7893 30.1544L35.8156 30.1453Z" fill="#84B626"/>
<path d="M42.1453 19.5732C42.0665 19.7458 41.9789 19.9275 41.8826 20.1C41.585 20.6722 41.2348 21.2172 40.8233 21.7167C40.4119 22.2345 39.9391 22.7068 39.4313 23.1246C38.7047 23.724 37.908 24.2145 37.05 24.5687C37.2864 24.9229 37.5491 25.2681 37.8292 25.5769C38.1882 25.9856 38.5734 26.358 38.9936 26.7031C39.4051 27.0392 39.8516 27.348 40.3156 27.6114C40.7796 27.8748 41.2698 28.1019 41.7601 28.2835C42.2679 28.4652 42.7756 28.6105 43.3009 28.7013C43.8349 28.8012 44.3777 28.8466 44.9205 28.8466C45.1306 28.8466 45.3408 28.8466 45.5509 28.8194C46.0937 25.2408 44.7104 21.744 42.1453 19.5732Z" fill="#97CBE9"/>
<path d="M39.3261 10.8265C38.8271 11.1989 38.3631 11.6258 37.9341 12.089C37.5139 12.5522 37.1374 13.0609 36.8135 13.6058C36.4808 14.1417 36.2094 14.723 35.9818 15.3134C35.7542 15.9128 35.5878 16.5304 35.4828 17.1662C35.3777 17.802 35.3252 18.4651 35.3339 19.1099C35.3515 19.782 35.4302 20.4451 35.5791 21.1081C35.8242 22.2344 36.2532 23.297 36.8485 24.2598C36.9098 24.3688 36.9798 24.4596 37.0411 24.5686C37.8816 24.2144 38.6782 23.7421 39.4224 23.1245C43.397 19.8365 44.185 13.951 41.3222 9.68213C41.1908 9.73662 41.0683 9.79112 40.9457 9.8547C40.3767 10.1181 39.8251 10.4542 39.3173 10.8356L39.3261 10.8265Z" fill="#97CBE9"/>
<path d="M34.4586 17.4751C33.9334 17.5659 33.4168 17.7112 32.9091 17.8929C32.41 18.0745 31.9198 18.3016 31.4645 18.565C31.0005 18.8284 30.554 19.1281 30.1426 19.4732C29.7311 19.8093 29.3371 20.1817 28.9869 20.5904C28.628 20.9991 28.2953 21.4442 28.0064 21.9074C27.7788 22.2798 27.5774 22.6613 27.4023 23.0518C30.1163 25.3497 33.8371 25.9128 37.05 24.5686C36.98 24.4687 36.9187 24.3688 36.8574 24.2598C36.2621 23.297 35.8331 22.2344 35.588 21.1081C35.4392 20.4451 35.3604 19.7821 35.3429 19.1099C35.3341 18.5196 35.3691 17.9292 35.4567 17.3479C35.124 17.3751 34.7913 17.4115 34.4586 17.4751Z" fill="#97CBE9"/>
<path d="M40.8231 21.7168C41.2258 21.2173 41.5848 20.6723 41.8824 20.1001C41.9787 19.9275 42.0663 19.7459 42.1451 19.5733C41.0332 18.6287 39.7113 17.9294 38.2142 17.5751C37.2862 17.3571 36.367 17.2845 35.4652 17.3481C35.3777 17.9294 35.3339 18.5197 35.3427 19.1101C35.3602 19.7822 35.439 20.4452 35.5878 21.1083C35.8329 22.2345 36.2619 23.2972 36.8572 24.26C36.9185 24.369 36.9885 24.4598 37.0498 24.5688C37.9078 24.2055 38.7045 23.7241 39.4311 23.1246C39.9389 22.7068 40.4116 22.2345 40.8231 21.7168Z" fill="#2CA5D5"/>
<path d="M38.302 36.358C38.2757 35.704 38.1794 35.0592 38.0306 34.4325C37.873 33.7785 37.6541 33.1427 37.374 32.5342C36.9625 31.6713 36.446 30.863 35.8331 30.1545C34.8001 30.7631 33.8633 31.5805 33.0754 32.5978C32.2875 33.6332 31.7272 34.7594 31.3857 35.9402C31.6309 36.0855 31.876 36.2127 32.1299 36.3307C32.7165 36.6032 33.338 36.8212 33.9684 36.9665C34.6688 37.1391 35.3954 37.2208 36.1045 37.2208C36.6386 37.2208 37.1814 37.1663 37.7154 37.0755C37.9168 37.0392 38.1181 36.9938 38.3282 36.9484C38.3282 36.7485 38.3282 36.5578 38.3195 36.3489L38.302 36.358Z" fill="#4AA436"/>
<path d="M8.29948 32.525C8.01933 33.1335 7.7917 33.7693 7.63412 34.4232C7.47654 35.0499 7.38899 35.7039 7.35397 36.3488C7.34521 36.5486 7.34521 36.7484 7.34521 36.9482C8.73721 37.2934 10.2255 37.3297 11.7138 36.9664C12.6418 36.7484 13.5085 36.3942 14.2965 35.931C14.1301 35.3588 13.92 34.8047 13.6574 34.2779C13.3685 33.6785 13.0095 33.1063 12.6068 32.5795C12.1428 31.98 11.6088 31.435 11.0309 30.9628C10.6545 30.663 10.2605 30.3815 9.84906 30.1362C9.22748 30.8447 8.71095 31.6439 8.30823 32.5159L8.29948 32.525Z" fill="#4AA436"/>
<path d="M18.1923 7.58407C17.3256 6.86654 16.3626 6.3125 15.3295 5.94919C14.9793 5.82203 14.6116 5.72212 14.2439 5.64038C13.6136 6.97553 13.2546 8.46509 13.2546 10.0545C13.2546 11.0355 13.3947 11.9801 13.6486 12.8793C14.1389 12.852 14.6291 12.7793 15.1106 12.6613C15.811 12.4978 16.5026 12.2435 17.168 11.9165C17.7546 11.6168 18.3061 11.2625 18.8226 10.8629C19.2691 10.5087 19.6981 10.109 20.0833 9.67308C19.9257 9.43693 19.7594 9.20986 19.5843 8.99188C19.1728 8.48325 18.7088 8.01095 18.201 7.58407H18.1923Z" fill="#4AA436"/>
<path d="M20.0922 41.1536C20.4949 42.0255 21.0114 42.8248 21.6418 43.5333C22.0007 43.9511 22.4034 44.3325 22.8324 44.6777C23.9618 43.7694 24.916 42.5796 25.5726 41.1536C25.9841 40.2635 26.2643 39.3371 26.4043 38.4106C25.8703 38.1927 25.3188 38.011 24.7672 37.8929C24.1369 37.7658 23.489 37.6931 22.8324 37.6931C22.1758 37.6931 21.5367 37.7658 20.8976 37.8929C20.3373 38.011 19.7858 38.1927 19.2605 38.4016C19.3043 38.6922 19.3568 38.9738 19.4268 39.2553C19.5844 39.9002 19.8033 40.536 20.0834 41.1445L20.0922 41.1536Z" fill="#2CA5D5"/>
<path d="M10.0854 21.1172C10.2254 20.4542 10.313 19.7912 10.3305 19.1191C10.348 18.5287 10.3042 17.9383 10.2167 17.357C10.0153 17.348 9.8052 17.3389 9.60384 17.3389C8.88596 17.3389 8.16807 17.4206 7.45894 17.5841C6.8286 17.7385 6.20702 17.9565 5.62045 18.229C5.05139 18.5014 4.49985 18.8284 3.98332 19.2099C3.83449 19.328 3.67691 19.446 3.52808 19.5823C4.13215 20.9174 5.04264 22.1527 6.23328 23.1336C6.97743 23.7512 7.77411 24.2235 8.61456 24.5777C8.6846 24.4778 8.74588 24.3779 8.81592 24.2689C9.41124 23.3062 9.84022 22.2435 10.0854 21.1172Z" fill="#2CA5D5"/>
<path d="M27.4811 7.58407C26.9734 8.00187 26.5094 8.47417 26.0979 8.99188C25.9228 9.20986 25.7565 9.43693 25.5989 9.67308C25.9841 10.109 26.4043 10.5087 26.8596 10.8629C27.3673 11.2716 27.9276 11.6258 28.5142 11.9165C29.1708 12.2435 29.8624 12.4978 30.5715 12.6613C31.0531 12.7703 31.5433 12.8429 32.0336 12.8793C32.2875 11.9801 32.4275 11.0355 32.4275 10.0545C32.4275 8.46509 32.0686 6.97553 31.4383 5.64038C31.0706 5.72212 30.7116 5.82203 30.3527 5.94919C29.3196 6.3125 28.3566 6.86654 27.4899 7.58407H27.4811Z" fill="#4AA436"/>
<path d="M198.478 13.4242C197.147 13.2698 194.722 13.0791 193.759 12.9974C187.972 12.5796 184.812 16.9211 184.838 20.9628C184.838 21.5532 184.996 22.734 185.136 23.2789C185.223 19.3734 188.34 14.0237 196.99 15.7585C204.545 17.2662 203.153 11.5623 202.593 10.8902C202.593 10.8902 201.419 8.01099 195.379 8.01099H187.429C187.088 8.01099 186.677 8.28347 186.677 8.81934V9.85477C186.677 10.2544 187 10.6359 187.421 10.6359H196.254C198.417 10.6359 199.336 12.08 199.397 12.3343C199.686 13.397 198.872 13.4697 198.469 13.4242H198.478Z" fill="#4DAD36"/>
<path d="M187.219 27.7475C193.094 31.3533 199.117 28.7648 200.842 27.4115V28.4741C200.842 28.9101 201.192 29.2643 201.586 29.2643H203.774C204.256 29.2643 204.554 28.901 204.554 28.4196V14.6594C204.554 24.7593 195.449 30.763 187.219 27.7384V27.7475Z" fill="#4DAD36"/>
<path d="M166.978 21.326C166.847 20.6266 167.32 20.2905 167.661 20.2905C171.198 20.3087 180.785 20.2905 181.424 20.2905C183.306 20.2905 183.674 18.5194 183.656 18.0744C183.35 12.4704 178.876 8.00171 173.361 8.00171C167.845 8.00171 163.056 12.761 163.056 18.6375C163.056 19.1007 162.855 23.7056 166.9 26.712C173.229 31.3986 185.862 28.8464 197.051 18.7919C187 27.0753 168.563 29.5367 166.978 21.3078V21.326ZM166.786 15.9399C167.845 13.2515 170.375 11.335 173.361 11.335C176.346 11.335 178.859 13.2242 179.918 15.8854C180.137 16.4395 179.769 16.9935 179.2 16.9935H167.512C166.9 16.9935 166.619 16.3396 166.786 15.9399Z" fill="#4DAD36"/>
<path d="M145.923 7.85654C140.242 7.85654 135.619 12.6249 135.619 18.4923V28.4197C135.619 28.7739 135.891 29.2008 136.381 29.2008H138.088C138.412 29.2008 138.823 28.9465 138.823 28.347C138.823 27.9383 138.823 24.0782 138.823 21.535C138.823 19.8366 138.832 18.4832 138.832 18.4832C138.832 14.4506 142.001 11.1717 145.923 11.1717C149.846 11.1717 153.015 14.4506 153.015 18.4832C153.015 18.4832 153.015 19.8547 153.015 21.535V28.4106C153.015 28.7648 153.277 29.1917 153.776 29.1917H155.484C155.807 29.1917 156.21 28.9374 156.21 28.3379C156.21 27.9292 156.21 24.0691 156.228 21.5259V18.4742C156.228 12.6068 151.614 7.83838 145.923 7.83838V7.85654Z" fill="#4DAD36"/>
<path d="M161.095 9.3915C161.095 6.43963 161.087 1.77115 161.087 1.20803C161.087 0.445084 160.474 0.218018 160.194 0.218018C159.695 0.218018 159.493 0.218018 158.845 0.218018C158.197 0.218018 157.882 0.726646 157.882 1.25344V28.2289C157.882 28.7557 158.18 29.2553 158.845 29.2553C159.511 29.2553 159.695 29.2462 160.194 29.2553C160.474 29.2553 161.087 29.0191 161.087 28.2562C161.087 27.7021 161.087 14.0872 161.095 10.0545V9.38241V9.3915Z" fill="#4DAD36"/>
<path d="M88.1949 8.41045C85.6298 10.5176 84.0452 13.8146 84.0452 17.6384V28.2015C84.0452 28.7283 84.3428 29.2279 84.9994 29.2279C85.656 29.2279 85.8399 29.2279 86.3476 29.2279C86.6366 29.2279 87.2406 28.9917 87.2406 28.2379C87.2406 27.4204 87.2581 17.6384 87.2581 17.6384C87.2581 15.7856 87.7397 13.9963 88.7815 12.7338C89.2805 12.1253 89.4293 11.6348 89.4293 10.5994V9.03715C89.4293 8.28329 88.6589 8.01081 88.1861 8.40136L88.1949 8.41045Z" fill="#4DAD36"/>
<path d="M79.9304 14.8865H73.2243C72.6815 14.8865 72.2875 15.3224 72.2875 15.8492V17.2025C72.2875 17.9655 72.8828 18.2198 73.1717 18.2198H77.9168C76.516 22.3161 72.7953 25.2498 68.4179 25.2498C62.8324 25.2498 58.3062 20.4995 58.3062 14.6412C58.3062 8.78293 62.8324 4.0327 68.4179 4.0327C72.1562 4.0327 75.5005 6.12171 77.1639 9.32788C77.3827 9.74569 77.9868 10.4995 78.9586 10.4995C79.6677 10.4995 80.3068 10.5359 80.657 10.4995C81.1648 10.4632 81.6463 9.91826 81.2961 9.00999C79.2563 3.69664 74.2311 0 68.4267 0C60.7138 0 54.4717 6.54859 54.4717 14.6412C54.4717 22.7339 60.7138 29.2825 68.4267 29.2825C75.1941 29.2825 80.8321 24.2234 82.1015 17.5114C82.2941 16.485 81.6813 14.8683 79.9391 14.8865H79.9304Z" fill="#4DAD36"/>
<path d="M101.397 7.96558C95.7063 7.96558 91.0925 12.734 91.0925 18.6014C91.0925 24.4688 95.7063 29.2371 101.397 29.2371C104.846 29.2371 107.919 27.4933 109.775 24.7866C110.134 24.278 109.705 23.5332 109.18 23.5514C108.602 23.5787 108.252 23.5514 107.56 23.5514C106.501 23.5514 106.089 24.0782 105.809 24.3234C104.601 25.3225 103.069 25.922 101.406 25.922C98.4465 25.922 95.9864 24.0055 94.8483 21.3807C94.6294 20.8629 94.9534 20.2544 95.5312 20.2544C98.6741 20.2635 108.795 20.2544 109.469 20.2544C111.351 20.2544 111.719 18.4833 111.692 18.0382C111.386 12.4342 106.912 7.96558 101.397 7.96558ZM107.245 16.9574H95.5487C94.9271 16.9574 94.6557 16.3035 94.8133 15.8947C95.8726 13.2063 98.4027 11.2989 101.388 11.2989C104.373 11.2989 106.886 13.179 107.945 15.8493C108.164 16.4034 107.788 16.9574 107.236 16.9574H107.245Z" fill="#4DAD36"/>
<path d="M123.695 7.96558C118.005 7.96558 113.391 12.734 113.391 18.6014C113.391 24.4688 118.005 29.2371 123.695 29.2371C127.144 29.2371 130.217 27.4933 132.073 24.7866C132.424 24.278 132.003 23.5332 131.478 23.5514C130.892 23.5787 130.55 23.5514 129.85 23.5514C128.79 23.5514 128.388 24.0782 128.099 24.3234C126.891 25.3225 125.359 25.922 123.695 25.922C120.736 25.922 118.267 24.0055 117.138 21.3807C116.919 20.8629 117.234 20.2544 117.821 20.2544C120.964 20.2635 131.084 20.2544 131.758 20.2544C133.64 20.2544 134.008 18.4833 133.982 18.0382C133.676 12.4342 129.193 7.96558 123.695 7.96558ZM129.543 16.9574H117.847C117.225 16.9574 116.954 16.3035 117.112 15.8947C118.171 13.2063 120.701 11.2989 123.686 11.2989C126.672 11.2989 129.184 13.179 130.244 15.8493C130.463 16.4034 130.095 16.9574 129.535 16.9574H129.543Z" fill="#4DAD36"/>
<path d="M213.011 7.82019H212.1C211.557 7.82019 211.496 7.30248 211.566 7.05725C211.82 6.15807 212.17 5.44962 212.757 4.86833C213.212 4.40511 213.343 3.77841 213.343 3.16079C213.343 2.73391 213.343 2.32519 213.343 1.8983C213.308 0.772054 212.205 0.790219 211.846 1.11719C210.122 2.67033 208.782 4.66851 208.239 7.06633C208.178 7.32065 207.915 7.82927 207.39 7.82927H206.112C205.315 7.82927 205.026 8.14717 205.026 8.76479C205.026 9.38241 205.026 9.11901 205.026 9.94553C205.026 10.7721 205.236 11.1899 206.112 11.1899H207.285C207.679 11.1899 207.95 11.4169 207.95 12.0527V22.3434V28.3561C207.95 28.8738 208.248 29.3824 208.913 29.3824C209.579 29.3824 209.754 29.3824 210.253 29.3824C210.542 29.3824 211.155 29.1553 211.155 28.3924C211.155 28.0654 211.155 17.2117 211.155 11.8529C211.216 11.3624 211.461 11.1899 211.794 11.1899H213.124C213.632 11.1899 213.982 10.6631 213.982 10.2725V8.8102C213.982 8.10175 213.457 7.83836 212.993 7.83836L213.011 7.82019Z" fill="#4DAD36"/>
<path d="M84.1328 46.7301C83.9402 46.7301 83.7738 46.6575 83.6425 46.5212C83.5112 46.385 83.4412 46.2215 83.4412 46.0126V36.7846C83.4412 36.5757 83.5112 36.4031 83.6425 36.276C83.7738 36.1488 83.9314 36.0762 84.1328 36.0762H87.2757C87.871 36.0762 88.3963 36.1942 88.8428 36.4395C89.2981 36.6847 89.6482 37.0117 89.9109 37.4386C90.1648 37.8655 90.2961 38.3559 90.2961 38.91C90.2961 39.355 90.1823 39.7546 89.9459 40.118C89.7095 40.4813 89.3944 40.7628 88.9916 40.9717C89.5695 41.117 90.0335 41.4077 90.3836 41.8346C90.7338 42.2615 90.9089 42.8246 90.9089 43.5149C90.9089 44.1416 90.7688 44.6956 90.4799 45.177C90.191 45.6584 89.7971 46.0398 89.2893 46.3123C88.7815 46.5848 88.195 46.7301 87.5384 46.7301H84.124H84.1328ZM84.8156 40.4631H87.2757C87.7747 40.4631 88.1862 40.3359 88.5014 40.0816C88.8165 39.8273 88.9829 39.4368 88.9829 38.919C88.9829 38.4013 88.8253 38.0199 88.5014 37.7655C88.1775 37.5203 87.7747 37.3932 87.2757 37.3932H84.8156V40.4631ZM84.8156 45.4222H87.5471C87.9498 45.4222 88.3088 45.3496 88.6152 45.2042C88.9216 45.0589 89.158 44.8409 89.3418 44.5594C89.5257 44.2778 89.6045 43.9236 89.6045 43.5058C89.6045 43.1152 89.5169 42.7883 89.3418 42.5339C89.1667 42.2796 88.9216 42.0889 88.6152 41.9526C88.3088 41.8164 87.9498 41.7528 87.5471 41.7528H84.8156V45.4041V45.4222Z" fill="#4AA436"/>
<path d="M95.7502 46.7845C95.041 46.7845 94.4107 46.6211 93.8679 46.3032C93.3251 45.9853 92.8961 45.5311 92.5897 44.968C92.2833 44.4049 92.1257 43.7509 92.1257 43.0153C92.1257 42.2796 92.2833 41.6165 92.5897 41.0443C92.8961 40.4812 93.3251 40.0271 93.8679 39.7092C94.4107 39.3913 95.041 39.2278 95.7502 39.2278C96.4593 39.2278 97.0721 39.3913 97.6149 39.7092C98.1577 40.0271 98.5867 40.4812 98.8931 41.0443C99.1995 41.6165 99.3571 42.2705 99.3571 43.0153C99.3571 43.76 99.1995 44.4049 98.8931 44.968C98.5867 45.5402 98.1577 45.9853 97.6149 46.3032C97.0721 46.6211 96.4418 46.7845 95.7327 46.7845H95.7502ZM95.7502 45.5584C96.2054 45.5584 96.6081 45.4494 96.9583 45.2314C97.3085 45.0134 97.5799 44.7137 97.7813 44.3322C97.9826 43.9508 98.0789 43.5148 98.0789 43.0062C98.0789 42.4975 97.9826 42.0616 97.7813 41.6801C97.5799 41.2986 97.3085 40.9898 96.9583 40.7718C96.6081 40.5539 96.2054 40.4449 95.7502 40.4449C95.2949 40.4449 94.8922 40.5539 94.542 40.7718C94.1918 40.9898 93.9117 41.2895 93.7103 41.6801C93.509 42.0707 93.4039 42.5066 93.4039 43.0062C93.4039 43.5057 93.5002 43.9508 93.7103 44.3322C93.9117 44.7137 94.1831 45.0134 94.542 45.2314C94.8922 45.4494 95.2949 45.5584 95.7502 45.5584Z" fill="#4AA436"/>
<path d="M101.686 46.7302C101.476 46.7302 101.309 46.6757 101.196 46.5576C101.082 46.4396 101.029 46.2761 101.029 46.049V39.9545C101.029 39.7366 101.082 39.5731 101.196 39.4459C101.309 39.3278 101.476 39.2733 101.686 39.2733C101.896 39.2733 102.071 39.3278 102.176 39.4459C102.281 39.5549 102.343 39.7275 102.343 39.9545V46.049C102.343 46.267 102.29 46.4396 102.176 46.5576C102.062 46.6757 101.905 46.7302 101.686 46.7302ZM101.677 42.0708C101.677 41.5258 101.808 41.0354 102.062 40.6085C102.316 40.1816 102.666 39.8365 103.104 39.5822C103.542 39.3278 104.023 39.2007 104.549 39.2007C105.074 39.2007 105.468 39.2915 105.722 39.4641C105.976 39.6457 106.081 39.8546 106.019 40.0999C105.993 40.227 105.941 40.3269 105.871 40.3905C105.801 40.4541 105.713 40.4995 105.617 40.5177C105.52 40.5358 105.415 40.5358 105.302 40.4995C104.741 40.3814 104.234 40.3723 103.787 40.4723C103.341 40.5722 102.99 40.7538 102.728 41.0354C102.474 41.3079 102.343 41.653 102.343 42.0708H101.668H101.677Z" fill="#4AA436"/>
<path d="M107.753 46.7391C107.56 46.7391 107.403 46.6756 107.271 46.5393C107.14 46.4031 107.079 46.2396 107.079 46.0398V39.9635C107.079 39.7546 107.14 39.582 107.271 39.4549C107.403 39.3277 107.56 39.2641 107.753 39.2641C107.946 39.2641 108.121 39.3277 108.243 39.4549C108.366 39.582 108.427 39.7546 108.427 39.9635V46.0398C108.427 46.2396 108.366 46.4031 108.243 46.5393C108.121 46.6756 107.954 46.7391 107.753 46.7391ZM113.155 46.7391C112.962 46.7391 112.804 46.6756 112.673 46.5393C112.542 46.4031 112.481 46.2396 112.481 46.0398V42.6883C112.481 42.1706 112.393 41.7437 112.209 41.4167C112.025 41.0897 111.78 40.8445 111.465 40.6901C111.159 40.5357 110.8 40.4539 110.397 40.4539C110.029 40.4539 109.697 40.5266 109.399 40.681C109.101 40.8354 108.865 41.0443 108.69 41.2986C108.515 41.562 108.427 41.8527 108.427 42.1887H107.595C107.595 41.6165 107.727 41.1079 107.998 40.6538C108.269 40.1996 108.628 39.8454 109.092 39.582C109.556 39.3186 110.082 39.1824 110.66 39.1824C111.237 39.1824 111.806 39.3186 112.279 39.582C112.752 39.8545 113.137 40.245 113.409 40.7628C113.689 41.2805 113.82 41.9163 113.82 42.6701V46.0216C113.82 46.2214 113.759 46.3849 113.627 46.5212C113.496 46.6574 113.338 46.721 113.146 46.721L113.155 46.7391Z" fill="#4AA436"/>
<path d="M118.802 40.7174C118.618 40.7174 118.469 40.6629 118.355 40.5539C118.241 40.4449 118.18 40.3087 118.18 40.1452C118.18 39.9635 118.232 39.8182 118.355 39.7092C118.469 39.6002 118.618 39.5457 118.802 39.5457H122.05C122.233 39.5457 122.382 39.6002 122.496 39.7092C122.61 39.8182 122.662 39.9635 122.662 40.1452C122.662 40.3087 122.61 40.4449 122.496 40.5539C122.382 40.6629 122.233 40.7174 122.05 40.7174H118.802ZM120.01 46.7301C119.843 46.7301 119.694 46.6665 119.563 46.5394C119.432 46.4122 119.362 46.2397 119.362 46.0308V39.3096C119.362 38.6556 119.484 38.0834 119.738 37.6021C119.992 37.1207 120.334 36.7483 120.78 36.4758C121.227 36.2124 121.743 36.0762 122.33 36.0762C122.522 36.0762 122.68 36.1307 122.811 36.2487C122.934 36.3668 123.004 36.5212 123.004 36.7029C123.004 36.8845 122.942 37.0208 122.811 37.1479C122.68 37.2751 122.522 37.3296 122.33 37.3296C122.006 37.3296 121.717 37.4022 121.472 37.5566C121.227 37.711 121.034 37.929 120.903 38.2015C120.763 38.474 120.701 38.801 120.701 39.1643V46.0217C120.701 46.2306 120.64 46.4031 120.517 46.5303C120.395 46.6575 120.229 46.721 120.01 46.721V46.7301Z" fill="#4AA436"/>
<path d="M126.725 46.7845C126.015 46.7845 125.385 46.6211 124.842 46.3032C124.299 45.9853 123.871 45.5311 123.564 44.968C123.258 44.4049 123.1 43.7509 123.1 43.0153C123.1 42.2796 123.258 41.6165 123.564 41.0443C123.871 40.4812 124.299 40.0271 124.842 39.7092C125.385 39.3913 126.015 39.2278 126.725 39.2278C127.434 39.2278 128.047 39.3913 128.589 39.7092C129.132 40.0271 129.561 40.4812 129.867 41.0443C130.174 41.6165 130.331 42.2705 130.331 43.0153C130.331 43.76 130.174 44.4049 129.867 44.968C129.561 45.5402 129.132 45.9853 128.589 46.3032C128.047 46.6211 127.416 46.7845 126.707 46.7845H126.725ZM126.725 45.5584C127.18 45.5584 127.583 45.4494 127.933 45.2314C128.283 45.0134 128.554 44.7137 128.756 44.3322C128.957 43.9508 129.053 43.5148 129.053 43.0062C129.053 42.4975 128.957 42.0616 128.756 41.6801C128.554 41.2986 128.283 40.9898 127.933 40.7718C127.583 40.5539 127.18 40.4449 126.725 40.4449C126.269 40.4449 125.867 40.5539 125.516 40.7718C125.166 40.9898 124.886 41.2895 124.685 41.6801C124.483 42.0707 124.378 42.5066 124.378 43.0062C124.378 43.5057 124.475 43.9508 124.685 44.3322C124.886 44.7137 125.157 45.0134 125.516 45.2314C125.867 45.4494 126.269 45.5584 126.725 45.5584Z" fill="#4AA436"/>
<path d="M132.66 46.7302C132.45 46.7302 132.284 46.6757 132.17 46.5576C132.056 46.4396 132.003 46.2761 132.003 46.049V39.9545C132.003 39.7366 132.056 39.5731 132.17 39.4459C132.284 39.3278 132.45 39.2733 132.66 39.2733C132.87 39.2733 133.045 39.3278 133.15 39.4459C133.255 39.5549 133.317 39.7275 133.317 39.9545V46.049C133.317 46.267 133.264 46.4396 133.15 46.5576C133.036 46.6757 132.879 46.7302 132.66 46.7302ZM132.651 42.0708C132.651 41.5258 132.783 41.0354 133.036 40.6085C133.29 40.1816 133.641 39.8365 134.078 39.5822C134.516 39.3278 134.998 39.2007 135.523 39.2007C136.048 39.2007 136.442 39.2915 136.696 39.4641C136.95 39.6457 137.055 39.8546 136.994 40.0999C136.967 40.227 136.915 40.3269 136.845 40.3905C136.775 40.4541 136.687 40.4995 136.591 40.5177C136.495 40.5358 136.39 40.5358 136.276 40.4995C135.715 40.3814 135.208 40.3723 134.761 40.4723C134.315 40.5722 133.964 40.7538 133.702 41.0354C133.448 41.3079 133.317 41.653 133.317 42.0708H132.643H132.651Z" fill="#4AA436"/>
<path d="M142.395 46.7301C142.203 46.7301 142.036 46.6575 141.905 46.5212C141.774 46.385 141.704 46.2215 141.704 46.0126V36.7846C141.704 36.5757 141.774 36.4031 141.905 36.276C142.036 36.1488 142.194 36.0762 142.395 36.0762H145.538C146.133 36.0762 146.659 36.1942 147.105 36.4395C147.561 36.6847 147.911 37.0117 148.173 37.4386C148.427 37.8655 148.559 38.3559 148.559 38.91C148.559 39.355 148.445 39.7546 148.208 40.1179C147.972 40.4813 147.657 40.7628 147.254 40.9717C147.832 41.117 148.296 41.4077 148.646 41.8346C148.996 42.2615 149.171 42.8246 149.171 43.5149C149.171 44.1416 149.031 44.6956 148.742 45.177C148.453 45.6584 148.06 46.0398 147.552 46.3123C147.044 46.5848 146.457 46.7301 145.801 46.7301H142.386H142.395ZM143.078 40.4631H145.538C146.037 40.4631 146.449 40.3359 146.764 40.0816C147.079 39.8273 147.245 39.4368 147.245 38.919C147.245 38.4013 147.088 38.0199 146.764 37.7655C146.44 37.5203 146.037 37.3932 145.538 37.3932H143.078V40.4631ZM143.078 45.4222H145.81C146.212 45.4222 146.571 45.3496 146.878 45.2042C147.184 45.0589 147.42 44.8409 147.604 44.5594C147.788 44.2778 147.867 43.9236 147.867 43.5058C147.867 43.1152 147.779 42.7883 147.604 42.5339C147.429 42.2796 147.184 42.0889 146.878 41.9526C146.571 41.8164 146.212 41.7528 145.81 41.7528H143.078V45.4041V45.4222Z" fill="#4AA436"/>
<path d="M154.127 46.7845C153.4 46.7845 152.752 46.6211 152.192 46.3032C151.623 45.9853 151.185 45.5311 150.861 44.968C150.537 44.4049 150.38 43.7509 150.38 43.0153C150.38 42.2796 150.528 41.6165 150.835 41.0443C151.141 40.4812 151.553 40.0271 152.087 39.7092C152.621 39.3913 153.234 39.2278 153.925 39.2278C154.617 39.2278 155.195 39.3822 155.685 39.7001C156.175 40.018 156.552 40.4449 156.806 40.9989C157.059 41.5529 157.191 42.1796 157.191 42.8972C157.191 43.0697 157.138 43.2151 157.024 43.3241C156.911 43.4331 156.762 43.4966 156.587 43.4966H151.29V42.4067H156.543L156 42.7882C155.991 42.3341 155.904 41.9253 155.738 41.5711C155.571 41.2169 155.335 40.9262 155.028 40.7173C154.722 40.5084 154.346 40.3994 153.908 40.3994C153.409 40.3994 152.98 40.5175 152.63 40.7446C152.279 40.9717 152.008 41.2805 151.824 41.6801C151.64 42.0797 151.553 42.5248 151.553 43.0243C151.553 43.5239 151.658 43.9689 151.885 44.3595C152.104 44.75 152.411 45.0588 152.796 45.2859C153.181 45.513 153.628 45.6311 154.127 45.6311C154.398 45.6311 154.678 45.5766 154.958 45.4766C155.238 45.3677 155.475 45.2496 155.65 45.1133C155.781 45.0134 155.921 44.9589 156.079 44.9589C156.228 44.9589 156.368 45.0044 156.482 45.1043C156.63 45.2405 156.709 45.3858 156.718 45.5584C156.718 45.7219 156.657 45.8581 156.508 45.9762C156.21 46.2214 155.843 46.4212 155.396 46.5756C154.95 46.7301 154.529 46.8027 154.127 46.8027V46.7845Z" fill="#4AA436"/>
<path d="M161.314 46.7846C160.675 46.7846 160.097 46.6211 159.59 46.2851C159.082 45.9581 158.679 45.5039 158.39 44.9317C158.092 44.3686 157.952 43.7237 157.952 43.0062C157.952 42.2887 158.11 41.6438 158.434 41.0716C158.758 40.4994 159.187 40.0453 159.738 39.7183C160.281 39.3913 160.903 39.2188 161.586 39.2188C162.268 39.2188 162.881 39.3822 163.424 39.7183C163.967 40.0544 164.396 40.4994 164.72 41.0716C165.044 41.6438 165.201 42.2887 165.201 43.0062H164.685C164.685 43.7237 164.536 44.3686 164.247 44.9317C163.949 45.5039 163.555 45.949 163.048 46.2851C162.54 46.6211 161.962 46.7846 161.323 46.7846H161.314ZM161.577 45.5584C162.023 45.5584 162.426 45.4495 162.776 45.2224C163.126 45.0044 163.407 44.6956 163.608 44.305C163.809 43.9236 163.914 43.4876 163.914 43.0062C163.914 42.5248 163.809 42.0798 163.608 41.6892C163.407 41.3078 163.126 40.9989 162.776 40.7719C162.426 40.5448 162.032 40.4358 161.577 40.4358C161.122 40.4358 160.745 40.5448 160.386 40.7719C160.027 40.9989 159.747 41.2987 159.546 41.6892C159.336 42.0798 159.239 42.5158 159.239 43.0062C159.239 43.4967 159.344 43.9236 159.546 44.305C159.747 44.6956 160.036 44.9953 160.386 45.2224C160.736 45.4495 161.139 45.5584 161.577 45.5584ZM164.518 46.7483C164.326 46.7483 164.168 46.6847 164.037 46.5485C163.906 46.4122 163.844 46.2487 163.844 46.0489V43.9599L164.098 42.5158L165.193 43.0062V46.0489C165.193 46.2487 165.131 46.4122 165 46.5485C164.869 46.6847 164.711 46.7483 164.518 46.7483Z" fill="#4AA436"/>
<path d="M169.876 46.7938C169.272 46.7938 168.729 46.6575 168.257 46.3941C167.775 46.1307 167.399 45.7311 167.127 45.2134C166.847 44.6957 166.716 44.0599 166.716 43.306V39.9545C166.716 39.7547 166.777 39.5912 166.908 39.455C167.04 39.3278 167.197 39.2552 167.39 39.2552C167.583 39.2552 167.74 39.3188 167.871 39.455C167.994 39.5912 168.064 39.7547 168.064 39.9545V43.306C168.064 43.8147 168.152 44.2325 168.344 44.5685C168.528 44.9046 168.782 45.1498 169.088 45.3042C169.404 45.4586 169.762 45.5404 170.156 45.5404C170.55 45.5404 170.866 45.4677 171.163 45.3133C171.452 45.1589 171.688 44.95 171.864 44.6866C172.039 44.4232 172.126 44.1326 172.126 43.7965H172.958C172.958 44.3596 172.827 44.8683 172.555 45.3224C172.284 45.7765 171.925 46.1398 171.461 46.4032C170.997 46.6666 170.48 46.8029 169.894 46.8029L169.876 46.7938ZM172.783 46.7211C172.59 46.7211 172.433 46.6575 172.301 46.5213C172.17 46.3941 172.109 46.2216 172.109 46.0218V39.9455C172.109 39.7366 172.17 39.564 172.301 39.4368C172.433 39.3097 172.59 39.2461 172.783 39.2461C172.975 39.2461 173.151 39.3097 173.273 39.4368C173.396 39.564 173.457 39.7366 173.457 39.9455V46.0218C173.457 46.2216 173.396 46.3851 173.273 46.5213C173.151 46.6575 172.984 46.7211 172.783 46.7211Z" fill="#4AA436"/>
<path d="M175.182 40.7173C174.998 40.7173 174.849 40.6628 174.735 40.5538C174.621 40.4448 174.569 40.3086 174.569 40.1451C174.569 39.9634 174.621 39.8181 174.735 39.7091C174.849 39.6001 174.998 39.5456 175.182 39.5456H178.22C178.403 39.5456 178.552 39.6001 178.666 39.7091C178.78 39.8181 178.841 39.9634 178.841 40.1451C178.841 40.3086 178.78 40.4448 178.666 40.5538C178.552 40.6628 178.403 40.7173 178.22 40.7173H175.182ZM178.097 46.73C177.659 46.73 177.265 46.6119 176.915 46.3849C176.565 46.1578 176.285 45.8399 176.083 45.4403C175.882 45.0406 175.786 44.5865 175.786 44.087V37.5838C175.786 37.384 175.847 37.2205 175.97 37.0933C176.092 36.9662 176.25 36.9026 176.442 36.9026C176.635 36.9026 176.793 36.9662 176.915 37.0933C177.038 37.2205 177.099 37.384 177.099 37.5838V44.087C177.099 44.4503 177.195 44.7591 177.388 45.0043C177.58 45.2495 177.817 45.3767 178.097 45.3767H178.543C178.701 45.3767 178.832 45.4403 178.946 45.5674C179.051 45.6946 179.113 45.8581 179.113 46.0579C179.113 46.2577 179.043 46.4212 178.894 46.5484C178.745 46.6755 178.561 46.7391 178.333 46.7391H178.097V46.73Z" fill="#4AA436"/>
<path d="M183.262 46.4303C183.096 46.503 182.938 46.512 182.798 46.4485C182.65 46.394 182.536 46.2759 182.448 46.1033L179.437 40.1724C179.349 39.9998 179.34 39.8363 179.402 39.6728C179.472 39.5184 179.585 39.4003 179.752 39.3277C179.918 39.255 180.076 39.2459 180.225 39.3095C180.373 39.3731 180.487 39.4821 180.566 39.6546L183.446 45.5856C183.534 45.7582 183.569 45.9217 183.543 46.0852C183.525 46.2487 183.429 46.3576 183.262 46.4303ZM181.713 49.9998C181.625 49.9998 181.52 49.9725 181.398 49.918C181.012 49.7364 180.907 49.4457 181.082 49.0552L185.092 39.6637C185.267 39.2823 185.547 39.1733 185.924 39.3368C186.318 39.5093 186.432 39.8 186.257 40.1996L182.238 49.5729C182.133 49.8545 181.958 49.9907 181.722 49.9907L181.713 49.9998Z" fill="#4AA436"/>
</g>
</g>
<defs>
<clipPath id="clip0_1_8079">
<rect width="214" height="50" fill="white"/>
</clipPath>
<clipPath id="clip1_1_8079">
<rect width="214" height="50" fill="white"/>
</clipPath>
</defs>
</svg>
