<svg width="64" height="64" fill="none" xmlns="http://www.w3.org/2000/svg"><path fill-rule="evenodd" clip-rule="evenodd" d="M32 8C18.743 8 8 18.745 8 32s10.744 24 24 24c13.254 0 24-10.745 24-24S45.253 8 32 8zM2.665 32c0-16.2 13.133-29.333 29.333-29.333S61.333 15.8 61.333 32 48.2 61.333 31.999 61.333C15.8 61.333 2.666 48.2 2.666 32z" fill="#fff"/><path fill-rule="evenodd" clip-rule="evenodd" d="M25.408 18.982a2.667 2.667 0 012.738.133l16 10.666a2.667 2.667 0 010 4.438l-16 10.667A2.667 2.667 0 0124 42.666V21.334c0-.983.541-1.887 1.408-2.35zm3.925 7.334v11.368L37.86 32l-8.526-5.684z" fill="#fff"/></svg>