<?xml version="1.0" encoding="utf-8"?><svg xmlns="http://www.w3.org/2000/svg" xmlns:xlink="http://www.w3.org/1999/xlink"><symbol viewBox="0 0 8 14" id="arrow" xmlns="http://www.w3.org/2000/svg"><path fill-rule="evenodd" clip-rule="evenodd" d="M.293.293a1 1 0 0 0 0 1.414L5.586 7 .293 12.293a1 1 0 1 0 1.414 1.414l6-6a1 1 0 0 0 0-1.414l-6-6a1 1 0 0 0-1.414 0z"/></symbol><symbol viewBox="0 0 24 24" id="arrow-middle" xmlns="http://www.w3.org/2000/svg"><path fill-rule="evenodd" clip-rule="evenodd" d="M20 12a1 1 0 0 0-1-1H5a1 1 0 1 0 0 2h14a1 1 0 0 0 1-1z"/><path fill-rule="evenodd" clip-rule="evenodd" d="M11.293 4.293a1 1 0 0 0 0 1.414L17.586 12l-6.293 6.293a1 1 0 0 0 1.414 1.414l7-7a1 1 0 0 0 0-1.414l-7-7a1 1 0 0 0-1.414 0z"/></symbol><symbol viewBox="0 0 49 48" id="bottle" xmlns="http://www.w3.org/2000/svg"><path d="M33.91 9.8l-1.96-2c-.19-.19-.45-.3-.71-.3H18.96c-.27 0-.53.11-.71.3l-1.96 2c-.38.39-.38 1.01 0 1.4l1.96 2c.19.19.45.3.71.3h12.28c.27 0 .53-.11.71-.3l1.96-2c.38-.39.38-1.01 0-1.4zM40.99 28.82l-6.92-9.5a2 2 0 0 0-1.62-.82H30.1v-2c0-.28-.22-.5-.5-.5h-9c-.28 0-.5.22-.5.5v2h-2.35c-.64 0-1.24.31-1.62.82l-6.92 9.5c-.51.7-.51 1.65 0 2.35l6.92 9.5a2 2 0 0 0 1.62.82h14.71c.64 0 1.24-.31 1.62-.82l6.92-9.5c.51-.7.51-1.65 0-2.35h-.01zM19.8 37.04a1.242 1.242 0 0 1-1.73-.35l-2-3c-.38-.57-.23-1.35.35-1.73.57-.38 1.35-.23 1.73.35l2 3c.38.57.23 1.35-.35 1.73zm1.32-12.84l-3.34 4.98a1.247 1.247 0 0 1-1.73.34c-.57-.38-.73-1.16-.34-1.73l3.34-4.98c.38-.57 1.16-.73 1.73-.34.57.38.73 1.16.34 1.73z"/></symbol><symbol viewBox="0 0 49 48" id="bubble" xmlns="http://www.w3.org/2000/svg"><g clip-path="url(#dclip0_14_1971)"><path d="M13 10.13c-1.41-.57-2.09-1.24-2.65-2.65-.16-.4-.74-.4-.9 0-.57 1.41-1.24 2.09-2.65 2.65-.4.16-.4.74 0 .9 1.41.57 2.09 1.24 2.65 2.65.16.4.74.4.9 0 .57-1.41 1.24-2.09 2.65-2.65.4-.16.4-.74 0-.9zM14.71 40.84c-1.28-.51-1.89-1.12-2.4-2.4a.446.446 0 0 0-.82 0c-.51 1.28-1.12 1.89-2.4 2.4-.36.15-.36.67 0 .82 1.28.51 1.89 1.12 2.4 2.4.15.36.67.36.82 0 .51-1.28 1.12-1.89 2.4-2.4.36-.15.36-.67 0-.82zM25.75 7.96c1.21.48 1.78 1.06 2.26 2.26.14.34.63.34.77 0 .48-1.21 1.06-1.78 2.26-2.26.34-.14.34-.63 0-.77-1.21-.48-1.78-1.06-2.26-2.26a.418.418 0 0 0-.77 0c-.48 1.21-1.06 1.78-2.26 2.26-.34.14-.34.63 0 .77zm17.3 10.23c-1.21-.48-1.78-1.06-2.26-2.26a.418.418 0 0 0-.77 0c-.48 1.21-1.06 1.78-2.26 2.26-.34.14-.34.63 0 .77 1.21.48 1.78 1.06 2.26 2.26.14.34.63.34.77 0 .48-1.21 1.06-1.78 2.26-2.26.34-.14.34-.63 0-.77zm-20.24-6.36c-7.73 0-14 6.27-14 14s6.27 14 14 14 14-6.27 14-14-6.27-14-14-14zm-7.5 18.5c-1.1 0-2-.9-2-2s.9-2 2-2 2 .9 2 2-.9 2-2 2zm5-9c-1.72 1.72-4.01 2.23-5.11 1.14-1.1-1.1-.59-3.39 1.14-5.11 1.72-1.72 4.01-2.23 5.11-1.14 1.1 1.1.59 3.39-1.14 5.11z"/></g><defs><clipPath id="dclip0_14_1971"><path transform="translate(.4)" d="M0 0h48v48H0z"/></clipPath></defs></symbol><symbol viewBox="0 0 49 48" id="carrot" xmlns="http://www.w3.org/2000/svg"><g clip-path="url(#eclip0_14_1981)"><path d="M37.81 12.81h-.01c.06-.44.09-.89.09-1.36 0-3.29-1.5-5.95-3.35-5.95s-3.35 2.67-3.35 5.95c0 2.59.93 4.79 2.23 5.61.92.78 2.54 1.29 4.39 1.29 2.87 0 5.2-1.24 5.2-2.77s-2.33-2.77-5.2-2.77zM32.4 18.29c-2.88-2.88-7.15-3.43-11.45-.28l5.04 5.04c.49.49.49 1.28 0 1.77-.24.24-.56.37-.88.37-.32 0-.64-.12-.88-.37l-5.17-5.17-.02.02c-1.4 1.4-3.54 4.17-5.63 7.36l4.31 4.31c.49.49.49 1.28 0 1.77-.24.24-.56.37-.88.37-.32 0-.64-.12-.88-.37l-3.91-3.91c-3.41 5.61-6.14 11.75-4.21 13.68 2.53 2.53 12.34-2.96 18.65-7.51l-3.81-3.81a1.25 1.25 0 0 1 0-1.77 1.25 1.25 0 0 1 1.77 0l4.06 4.06c1.05-.82 1.92-1.57 2.53-2.18 4.92-4.91 4.69-10.06 1.38-13.37l-.02-.01z"/></g><defs><clipPath id="eclip0_14_1981"><path transform="translate(.6)" d="M0 0h48v48H0z"/></clipPath></defs></symbol><symbol viewBox="0 0 16 16" id="cart" xmlns="http://www.w3.org/2000/svg"><g clip-path="url(#fclip0_2_1750)" fill-rule="evenodd" clip-rule="evenodd"><path d="M4.667 14a1.333 1.333 0 1 1 2.666 0 1.333 1.333 0 0 1-2.667 0zM12 14a1.333 1.333 0 1 1 2.667 0A1.333 1.333 0 0 1 12 14zM0 .667C0 .298.298 0 .667 0h2.666c.318 0 .592.224.654.536l.56 2.797h10.786a.667.667 0 0 1 .655.792l-1.067 5.598a2 2 0 0 1-1.993 1.61H6.459a2 2 0 0 1-1.993-1.61s0 .001 0 0L3.353 4.16a.66.66 0 0 1-.012-.056l-.554-2.77H.667A.667.667 0 0 1 0 .667zm4.814 4l.96 4.796A.667.667 0 0 0 6.44 10h6.505a.667.667 0 0 0 .666-.534l.915-4.8H4.815z"/></g><defs><clipPath id="fclip0_2_1750"><path d="M0 0h16v16H0z"/></clipPath></defs></symbol><symbol viewBox="0 0 49 48" id="cup" xmlns="http://www.w3.org/2000/svg"><g clip-path="url(#gclip0_14_2582)"><path d="M32.89 36.5h-16c-.28 0-.5.22-.5.5v6c0 1.1.9 2 2 2h13c1.1 0 2-.9 2-2v-6c0-.28-.22-.5-.5-.5zM35.73 10H14.15c-.29 0-.52.25-.5.54l1.6 21.61c.08 1.04.95 1.85 1.99 1.85h15.29c1.04 0 1.91-.8 1.99-1.84l1.69-21.62a.505.505 0 0 0-.5-.54h.02zm-7.65 7.95c.37-.38.98-.38 1.36 0 .37.37.37.98 0 1.36-.37.37-1.4.66-1.71.35-.31-.31-.02-1.33.35-1.71zm-2.69-1.65c.53 0 .96.43.96.96s-.52 1.46-.96 1.46c-.44 0-.96-.93-.96-1.46 0-.53.43-.96.96-.96zm-5.7 5.7c0-.53.43-.96.96-.96s1.46.52 1.46.96c0 .44-.93.96-1.46.96a.96.96 0 0 1-.96-.96zm3.01 4.05c-.37.38-.98.38-1.36 0a.972.972 0 0 1 0-1.36c.37-.38 1.4-.66 1.71-.35.31.31.02 1.33-.35 1.71zm.35-6.39c-.31.31-1.33.02-1.71-.35a.972.972 0 0 1 0-1.36c.37-.38.98-.38 1.36 0 .37.37.66 1.4.35 1.71zm2.34 8.04a.96.96 0 0 1-.96-.96c0-.53.52-1.46.96-1.46.44 0 .96.93.96 1.46 0 .53-.43.96-.96.96zm0-3.7c-1.1 0-2-.9-2-2s.9-2 2-2 2 .9 2 2-.9 2-2 2zm4.05 2.05c-.37.38-.98.38-1.36 0-.37-.37-.66-1.4-.35-1.71.31-.31 1.33-.02 1.71.35.37.38.37.98 0 1.36zm.69-3.09c-.53 0-1.46-.52-1.46-.96 0-.44.93-.96 1.46-.96a.96.96 0 0 1 0 1.92zM35.39 4H14.41c-.56 0-1.01.46-1 1.02l.06 1.99c0 .27.23.49.5.49h21.92c.28 0 .5-.22.5-.5V5c0-.55-.45-1-1-1z"/></g><defs><clipPath id="gclip0_14_2582"><path transform="translate(.4)" d="M0 0h48v48H0z"/></clipPath></defs></symbol><symbol viewBox="0 0 49 48" id="diamond" xmlns="http://www.w3.org/2000/svg"><g clip-path="url(#hclip0_14_2571)"><path d="M17.76 23.72l.52-6.31a.492.492 0 0 0-.33-.51l-7.79-3.46a.998.998 0 0 0-1.17.4l-2.08 3.24c-.69 1.08-.21 2.52.99 2.96l9.19 4.11c.31.11.64-.1.67-.43zm2.97 1.05h8.21c.29 0 .52-.25.5-.54l-.47-6.59a.501.501 0 0 0-.5-.46h-7.19c-.26 0-.48.2-.5.46l-.54 6.59c-.02.29.21.54.5.54h-.01zm-3.17 2.29l-8.44-3.84c-.48-.18-.89.4-.55.79l12.16 16.58c.21.24.6.04.52-.27l-3.38-12.93a.483.483 0 0 0-.31-.34v.01zm22.03-3.46l-7.92 3.69c-.14.05-.25.17-.3.31l-4.22 12.55c-.1.31.29.54.51.3L40.13 24.4c.35-.39-.06-.99-.55-.8h.01zm-11.12 3.65h-7.42c-.33 0-.57.31-.48.63l3.25 12.42c.13.48.8.5.96.03l4.17-12.42a.5.5 0 0 0-.47-.66h-.01zm14.04-10.16l-2.08-3.24a.998.998 0 0 0-1.18-.4l-7.48 3.42a.5.5 0 0 0-.33.51l.45 6.33c.02.33.36.55.67.43l8.96-4.08a2 2 0 0 0 .98-2.96l.01-.01zM35.76 10.97l-7.02-2.64a.566.566 0 0 0-.18-.03h-7.71c-.06 0-.12.01-.18.03l-6.98 2.63c-.44.16-.43.78 0 .94l5.8 2.76c.05.02.11.03.17.03h10.3c.06 0 .12-.01.17-.03l5.61-2.74a.5.5 0 0 0 0-.94l.02-.01z"/></g><defs><clipPath id="hclip0_14_2571"><path transform="translate(.2)" d="M0 0h48v48H0z"/></clipPath></defs></symbol><symbol viewBox="0 0 24 25" id="dog" xmlns="http://www.w3.org/2000/svg"><path fill-rule="evenodd" clip-rule="evenodd" d="M12 9.2a3 3 0 1 0 0 6 3 3 0 0 0 0-6zm-5 3a5 5 0 1 1 10 0 5 5 0 0 1-10 0z"/><path fill-rule="evenodd" clip-rule="evenodd" d="M7.3 2.254A11 11 0 0 1 23 12.2v1a4 4 0 1 1-8 0v-5a1 1 0 1 1 2 0v5a2 2 0 0 0 4 0v-1a9 9 0 1 0-3.528 7.146 1 1 0 0 1 1.216 1.588A11 11 0 1 1 7.3 2.254z"/></symbol><symbol viewBox="0 0 49 48" id="face" xmlns="http://www.w3.org/2000/svg"><g clip-path="url(#jclip0_14_1991)"><path d="M11 12.01c-1.25 2.48-1.83 5.3-1.48 8.24.03.27.07.53.1.78.08.54.56.95 1.1.89a3.908 3.908 0 0 1 1.17.03c.3.05.6-.05.82-.26 2.87-2.7 6.84-5.4 9.62-6.86-3.68-1.75-7.49-3.07-9.61-3.63-.69-.18-1.4.16-1.72.8v.01zm14.21-8.26c-3.95 0-7.34 1.16-9.94 3.09-.99.73-.76 2.27.41 2.65 3 .98 7.04 2.6 10.6 4.58 2.34 1.08 6.93 4.7 10.09 7.67.23.22.55.33.86.26.31-.07.63-.11.96-.11.15 0 .3 0 .45.02.51.05.97-.32 1.07-.83.05-.26.1-.54.15-.84 1.44-8.43-3.87-16.5-14.66-16.5l.01.01zM38.69 24.46a1.96 1.96 0 0 0-1.6.28c-.42.29-.96.27-1.32-.09-1.75-1.78-4.32-3.97-6.56-5.68-.04-.03-.09-.04-.13-.07-1.14-.92-2.5-1.79-3.94-2.6-1.92.58-8.3 4.57-11.72 8.21-.32.34-.84.38-1.25.15-.37-.21-.82-.31-1.3-.23-.98.16-1.65 1.09-1.65 2.08v4.68c0 .79.4 1.55 1.1 1.92.58.31 1.11.27 1.57.1.31 8.89 9.15 12.04 12.8 12.04 3.65 0 12.5-3.15 12.8-12.04.47.18 1.01.21 1.59-.1.69-.36 1.09-1.11 1.09-1.89v-4.76c0-.92-.6-1.79-1.49-2.01l.01.01zM18.2 31.5c-2.21 0-4-1.12-4-2.5s1.79-2.5 4-2.5 4 1.12 4 2.5-1.79 2.5-4 2.5zm9.73 8.04a2.62 2.62 0 0 1-2.53 1.96h-1.19a2.62 2.62 0 0 1-2.53-1.96.829.829 0 0 1 .81-1.04h4.64c.54 0 .94.51.81 1.04h-.01zm-.39-2.04h-5.47a.45.45 0 0 1-.42-.61c.32-.84 1.13-1.39 2.03-1.39h2.26c.9 0 1.7.55 2.03 1.39.11.29-.1.61-.42.61h-.01zm3.66-6c-2.21 0-4-1.12-4-2.5s1.79-2.5 4-2.5 4 1.12 4 2.5-1.79 2.5-4 2.5z"/></g><defs><clipPath id="jclip0_14_1991"><path transform="translate(.2)" d="M0 0h48v48H0z"/></clipPath></defs></symbol><symbol viewBox="0 0 16 16" id="grid" xmlns="http://www.w3.org/2000/svg"><path fill-rule="evenodd" clip-rule="evenodd" d="M1.333 2c0-.368.299-.667.667-.667h4.667c.368 0 .666.299.666.667v4.667a.667.667 0 0 1-.666.666H2a.667.667 0 0 1-.667-.666V2zm1.334.667V6H6V2.667H2.667zM8.667 2c0-.368.298-.667.666-.667H14c.368 0 .667.299.667.667v4.667a.667.667 0 0 1-.667.666H9.333a.667.667 0 0 1-.666-.666V2zM10 2.667V6h3.333V2.667H10zM8.667 9.333c0-.368.298-.666.666-.666H14c.368 0 .667.298.667.666V14a.667.667 0 0 1-.667.667H9.333A.667.667 0 0 1 8.667 14V9.333zM10 10v3.333h3.333V10H10zM1.333 9.333c0-.368.299-.666.667-.666h4.667c.368 0 .666.298.666.666V14a.667.667 0 0 1-.666.667H2A.667.667 0 0 1 1.333 14V9.333zM2.667 10v3.333H6V10H2.667z"/></symbol><symbol viewBox="0 0 48 48" id="hair" xmlns="http://www.w3.org/2000/svg"><g clip-path="url(#lclip0_14_2593)"><path d="M31.75 4.94a.253.253 0 0 0-.35.05c-1.42 1.93-2.66 3.98-3.8 6.1a62.003 62.003 0 0 0-3.07 6.6 56.72 56.72 0 0 0-2.32 7.03c-.67 2.41-1.09 4.89-1.45 7.41a4.046 4.046 0 0 0 4.49 4.58 4.046 4.046 0 0 0 3.52-4.5v-.08c-.28-2.16-.5-4.37-.49-6.61-.03-2.24.1-4.51.36-6.78.25-2.27.64-4.55 1.17-6.81.52-2.26 1.17-4.52 2.01-6.7.04-.11 0-.23-.08-.3l.01.01z"/><path d="M36.5 34.75h3.48v-2.42c0-.99-.71-1.83-1.69-1.98-1.65-.26-3.46-.4-5.37-.43-.32 0-.59.3-.51.61.3 1.23.32 2.57-.07 3.97-.8 2.84-3.21 5.03-6.12 5.52-4.9.83-9.14-2.92-9.14-7.66 0-.64.08-1.25.23-1.84.08-.31-.18-.61-.5-.61-2.19.03-4.27.24-6.16.6-.94.18-1.62 1.01-1.62 1.97v1.76h2.98a1.25 1.25 0 0 1 0 2.5H9.03v5.36c0 1.1.9 2 2 2h26.96c1.1 0 2-.9 2-2v-4.86h-3.48a1.25 1.25 0 0 1 0-2.5l-.01.01z"/></g><defs><clipPath id="lclip0_14_2593"><path d="M0 0h48v48H0z"/></clipPath></defs></symbol><symbol viewBox="0 0 16 16" id="heart" xmlns="http://www.w3.org/2000/svg"><path d="M8.08 12.864L8 12.94l-.088-.076C4.112 9.575 1.6 7.4 1.6 5.196c0-1.526 1.2-2.67 2.8-2.67 1.232 0 2.432.763 2.856 1.8h1.488c.424-1.037 1.624-1.8 2.856-1.8 1.6 0 2.8 1.144 2.8 2.67 0 2.205-2.512 4.38-6.32 7.668zM11.6 1c-1.392 0-2.728.618-3.6 1.587C7.128 1.618 5.792 1 4.4 1 1.936 1 0 2.839 0 5.196c0 2.876 2.72 5.234 6.84 8.797L8 15l1.16-1.007C13.28 10.43 16 8.073 16 5.196 16 2.84 14.064 1 11.6 1z"/></symbol><symbol viewBox="0 0 49 48" id="lamp" xmlns="http://www.w3.org/2000/svg"><g clip-path="url(#nclip0_14_2030)"><path d="M40.72 27.48L33.13 5.91c-.14-.4-.52-.67-.94-.67H17.61c-.42 0-.8.27-.94.67L9.09 27.48c-.12.34-.05.72.19.99.56.66 1.77 1.75 3.63 1.75 1.54 0 2.64-.75 3.29-1.38.4-.39 1.02-.39 1.42 0 .65.63 1.75 1.38 3.29 1.38s2.64-.75 3.29-1.38c.4-.39 1.02-.39 1.42 0 .65.63 1.75 1.38 3.29 1.38s2.64-.75 3.29-1.38c.4-.39 1.02-.39 1.42 0 .65.63 1.75 1.38 3.29 1.38 1.86 0 3.07-1.09 3.63-1.75.24-.28.31-.65.19-.99h-.01zm-11.4 13.27h-2.93v-7.5c0-.83-.67-1.5-1.5-1.5s-1.5.67-1.5 1.5v7.5h-2.92a2.57 2.57 0 0 0-2.57 2.57c0 .24.19.43.43.43h13.14c.24 0 .43-.19.43-.43a2.57 2.57 0 0 0-2.57-2.57h-.01zM32.9 31.75c-.83 0-1.5.67-1.5 1.5v1.5c0 .83.67 1.5 1.5 1.5s1.5-.67 1.5-1.5v-1.5c0-.83-.67-1.5-1.5-1.5z"/></g><defs><clipPath id="nclip0_14_2030"><path transform="translate(.4)" d="M0 0h48v48H0z"/></clipPath></defs></symbol><symbol viewBox="0 0 48 48" id="layers" xmlns="http://www.w3.org/2000/svg"><g clip-path="url(#oclip0_14_2021)"><path d="M43.32 14.57L25.99 4.62c-.62-.35-1.3-.53-1.99-.53s-1.38.18-1.99.53L4.68 14.57c-1.32.76-1.32 2.66 0 3.42l18.34 10.53c.3.17.64.26.98.26.34 0 .68-.09.98-.26l18.34-10.53c1.32-.76 1.32-2.66 0-3.42z"/><path d="M43.32 22.14l-1.15-.66-17.19 9.87c-.3.17-.64.26-.98.26-.34 0-.68-.09-.98-.26L5.83 21.48l-1.15.66c-1.32.76-1.32 2.66 0 3.42l18.34 10.53c.3.17.64.26.98.26.34 0 .68-.09.98-.26l18.34-10.53c1.32-.76 1.32-2.66 0-3.42z"/><path d="M43.32 29.7l-1.15-.66-17.19 9.87c-.3.17-.64.26-.98.26-.34 0-.68-.09-.98-.26L5.83 29.04l-1.15.66c-1.32.76-1.32 2.66 0 3.42l18.34 10.53c.3.17.64.26.98.26.34 0 .68-.09.98-.26l18.34-10.53c1.32-.76 1.32-2.66 0-3.42z"/></g><defs><clipPath id="oclip0_14_2021"><path d="M0 0h48v48H0z"/></clipPath></defs></symbol><symbol viewBox="0 0 49 48" id="makeup" xmlns="http://www.w3.org/2000/svg"><g clip-path="url(#pclip0_14_2001)"><path d="M17.42 8.24l-2.62-1.5c-.67-.38-1.5.1-1.5.87v10.78c0 .28.22.5.5.5h6c.28 0 .5-.22.5-.5v-5.18c0-2.05-1.1-3.95-2.88-4.96v-.01zM39.8 38.39h-12c-.28 0-.5.22-.5.5v3c0 .28.22.5.5.5h12c.28 0 .5-.22.5-.5v-3c0-.28-.22-.5-.5-.5zM36.3 17.89h-5c-2.21 0-4 1.79-4 4v13.5c0 .28.22.5.5.5h12c.28 0 .5-.22.5-.5v-13.5c0-2.21-1.79-4-4-4zm-3 11.14c0 .83-.67 1.5-1.5 1.5s-1.5-.67-1.5-1.5v-6c0-.83.67-1.5 1.5-1.5s1.5.67 1.5 1.5v6zm-11-4h-1v-3.14c0-.28-.22-.5-.5-.5h-8c-.28 0-.5.22-.5.5v3.14h-1c-.55 0-1 .45-1 1v14c0 1.1.9 2 2 2h9c1.1 0 2-.9 2-2v-14c0-.55-.45-1-1-1zm-6.5 11c0 .83-.67 1.5-1.5 1.5s-1.5-.67-1.5-1.5v-6c0-.83.67-1.5 1.5-1.5s1.5.67 1.5 1.5v6z"/></g><defs><clipPath id="pclip0_14_2001"><path transform="translate(.8)" d="M0 0h48v48H0z"/></clipPath></defs></symbol><symbol viewBox="0 0 12 12" id="minus" xmlns="http://www.w3.org/2000/svg"><path d="M3 7V5h6v2H3z"/></symbol><symbol viewBox="0 0 12 12" id="plus" xmlns="http://www.w3.org/2000/svg"><path d="M4.908 10V2h2.168v8H4.908zM2 7.056V4.944h8v2.112H2z"/></symbol><symbol viewBox="0 0 16 16" id="search" xmlns="http://www.w3.org/2000/svg"><path fill-rule="evenodd" clip-rule="evenodd" d="M7.333 2.667a4.667 4.667 0 1 0 0 9.333 4.667 4.667 0 0 0 0-9.333zm-6 4.666a6 6 0 1 1 12 0 6 6 0 0 1-12 0z"/><path fill-rule="evenodd" clip-rule="evenodd" d="M10.628 10.629c.26-.26.683-.26.943 0l2.9 2.9a.667.667 0 0 1-.943.942l-2.9-2.9a.667.667 0 0 1 0-.942z"/></symbol><symbol viewBox="0 0 49 48" id="ship" xmlns="http://www.w3.org/2000/svg"><g clip-path="url(#tclip0_14_12133)"><path d="M42.68 32.7H7.92c-.74 0-1.23.78-.89 1.45l4 8a1 1 0 0 0 .89.55h26.76c.38 0 .72-.21.89-.55l4-8c.33-.66-.15-1.45-.89-1.45zm-16.92-2.5h11.85c.75 0 1.23-.79.89-1.46L27.15 6.84c-.48-.93-1.89-.59-1.89.46v22.4c0 .28.22.5.5.5zM20.96 14.59l-8.78 11.68a.997.997 0 0 0 .57 1.57l9.39 2.21c.31.07.61-.16.61-.49V15.19c0-.96-1.22-1.37-1.8-.6h.01z"/></g><defs><clipPath id="tclip0_14_12133"><path transform="translate(.8)" d="M0 0h48v48H0z"/></clipPath></defs></symbol><symbol viewBox="0 0 24 24" id="telegram" xmlns="http://www.w3.org/2000/svg"><path fill-rule="evenodd" clip-rule="evenodd" d="M17.16 13.68c.154-.904.251-1.506.332-2.018.08-.513.143-.938.191-1.273.048-.335.08-.583.11-.794.03-.213.056-.392.079-.577.023-.185.043-.378.058-.545.016-.17.027-.315.031-.427.004-.11 0-.183-.006-.235a.738.738 0 0 0-.068-.23.488.488 0 0 0-.21-.208.72.72 0 0 0-.193-.066.89.89 0 0 0-.235-.011c-.082.006-.163.02-.278.048a5.867 5.867 0 0 0-.437.126c-.175.058-.378.131-2.093.855-1.715.724-4.94 2.096-6.556 2.787-1.616.69-1.62.698-1.667.72-.048.022-.14.058-.246.107a4.05 4.05 0 0 0-.327.17c-.1.059-.183.114-.244.165a.734.734 0 0 0-.135.138.249.249 0 0 0-.046.116.477.477 0 0 0-.002.141.312.312 0 0 0 .045.125.44.44 0 0 0 .102.109.987.987 0 0 0 .18.11c.077.038.17.078.318.13.146.051.344.117.608.198.264.083.593.184.845.251s.427.103.57.13c.144.027.257.044.368.049.11.004.218 0 .323-.02a2.114 2.114 0 0 0 .592-.2c.095-.048.194-.108.682-.435.488-.328 1.364-.923 2.15-1.458a466.94 466.94 0 0 1 1.871-1.26c.385-.256.458-.3.512-.335.054-.034.09-.058.126-.073a.358.358 0 0 1 .108-.026.3.3 0 0 1 .093.004c.026.006.05.017.068.031a.108.108 0 0 1 .04.066.39.39 0 0 1 .006.12c-.004.038-.015.063-.077.138a7.197 7.197 0 0 1-.505.533c-.33.33-.877.864-1.213 1.19-.335.325-.458.443-.565.545l-.298.28c-.098.093-.2.191-.298.287l-.286.274c-.091.088-.18.173-.267.26a9.063 9.063 0 0 0-.248.256 2.381 2.381 0 0 0-.166.197.99.99 0 0 0-.158.337c-.01.053-.008.1.008.16a.826.826 0 0 0 .233.38c.066.065.151.137.485.372.334.235.913.633 1.485 1.025l1.481 1.014c.348.236.478.324.607.39s.255.108.34.135a.73.73 0 0 0 .203.039c.074.005.179.006.256-.002a.386.386 0 0 0 .18-.058.735.735 0 0 0 .172-.142 1.39 1.39 0 0 0 .175-.242c.052-.09.092-.184.126-.279.034-.094.06-.184.177-.833.117-.649.328-1.857.482-2.761h.006zM12 0c6.627 0 12 5.373 12 12s-5.373 12-12 12S0 18.627 0 12 5.373 0 12 0zm0 1.321c5.909 0 10.698 4.78 10.698 10.68 0 5.9-4.79 10.681-10.698 10.681-5.909 0-10.698-4.78-10.698-10.68C1.302 6.102 6.092 1.32 12 1.32z"/></symbol><symbol viewBox="0 0 24 24" id="vk" xmlns="http://www.w3.org/2000/svg"><path fill-rule="evenodd" clip-rule="evenodd" d="M9.604 12.898c-.551-.638-1.115-1.677-1.44-2.45-.11-.261-.222-.516-.32-.79-.074-.212-.2-.626-.33-.781-.202-.243-.538-.188-.915-.188-.217 0-.947-.011-1.104.003-.4.035-.487.232-.413.646.056.304.149.601.241.87.27.777.65 1.582 1.052 2.28.266.463.552.938.852 1.369.153.22.305.439.465.644.574.74 1.44 1.532 2.462 1.965.518.22 1.146.401 1.824.385.337-.007.71-.021.893-.214.098-.102.105-.268.105-.447v-.562c0-.246-.029-.887.048-1.068.059-.137.204-.17.397-.153a.981.981 0 0 1 .411.147c.223.126.596.42.776.6l.143.137c.095.084.197.183.28.279.088.098.176.184.264.283l.264.295c.144.168.368.421.553.556.27.194.564.149.95.149.35 0 .75.019 1.09-.005.355-.025.535-.244.423-.625-.12-.403-.603-.998-.882-1.337l-.924-1.013c-.026-.029-.039-.047-.067-.074-.17-.16-.505-.475-.54-.708-.033-.207.245-.544.37-.729.456-.678 1.658-2.471 1.786-3.214.034-.199-.02-.32-.148-.392-.125-.072-.312-.065-.48-.065h-.555c-.274 0-.833-.033-1.05.05-.276.105-.364.362-.475.634-.082.2-.26.558-.36.75a12.73 12.73 0 0 1-.826 1.394 7.586 7.586 0 0 1-.482.628c-.113.133-.434.444-.614.492-.396.109-.35-.407-.35-.722V9.686c0-.319.056-.801-.178-.936-.133-.077-.315-.058-.488-.058h-1.654c-.272 0-.757-.078-.805.3-.053.405.584.479.584 1.64v1.116c0 .363.014.757 0 1.115-.008.163-.033.35-.146.405-.19.092-.44-.107-.546-.228-.045-.05-.093-.089-.138-.142h-.003zM12 0c6.627 0 12 5.373 12 12s-5.373 12-12 12S0 18.628 0 12 5.373 0 12 0zm0 1.321c5.909 0 10.698 4.78 10.698 10.68 0 5.9-4.79 10.681-10.698 10.681-5.909 0-10.698-4.784-10.698-10.682C1.302 6.102 6.092 1.321 12 1.321z"/></symbol></svg>