<?xml version="1.0" encoding="utf-8"?><svg xmlns="http://www.w3.org/2000/svg" xmlns:xlink="http://www.w3.org/1999/xlink"><symbol viewBox="0 0 24 24" id="arrow-middle" xmlns="http://www.w3.org/2000/svg"><path fill-rule="evenodd" clip-rule="evenodd" d="M20 12a1 1 0 0 0-1-1H5a1 1 0 1 0 0 2h14a1 1 0 0 0 1-1z"/><path fill-rule="evenodd" clip-rule="evenodd" d="M11.293 4.293a1 1 0 0 0 0 1.414L17.586 12l-6.293 6.293a1 1 0 0 0 1.414 1.414l7-7a1 1 0 0 0 0-1.414l-7-7a1 1 0 0 0-1.414 0z"/></symbol><symbol viewBox="0 0 16 16" id="cart" xmlns="http://www.w3.org/2000/svg"><g clip-path="url(#bclip0_2_1750)" fill-rule="evenodd" clip-rule="evenodd"><path d="M4.667 14a1.333 1.333 0 1 1 2.666 0 1.333 1.333 0 0 1-2.667 0zM12 14a1.333 1.333 0 1 1 2.667 0A1.333 1.333 0 0 1 12 14zM0 .667C0 .298.298 0 .667 0h2.666c.318 0 .592.224.654.536l.56 2.797h10.786a.667.667 0 0 1 .655.792l-1.067 5.598a2 2 0 0 1-1.993 1.61H6.459a2 2 0 0 1-1.993-1.61s0 .001 0 0L3.353 4.16a.66.66 0 0 1-.012-.056l-.554-2.77H.667A.667.667 0 0 1 0 .667zm4.814 4l.96 4.796A.667.667 0 0 0 6.44 10h6.505a.667.667 0 0 0 .666-.534l.915-4.8H4.815z"/></g><defs><clipPath id="bclip0_2_1750"><path d="M0 0h16v16H0z"/></clipPath></defs></symbol><symbol viewBox="0 0 16 16" id="grid" xmlns="http://www.w3.org/2000/svg"><path fill-rule="evenodd" clip-rule="evenodd" d="M1.333 2c0-.368.299-.667.667-.667h4.667c.368 0 .666.299.666.667v4.667a.667.667 0 0 1-.666.666H2a.667.667 0 0 1-.667-.666V2zm1.334.667V6H6V2.667H2.667zM8.667 2c0-.368.298-.667.666-.667H14c.368 0 .667.299.667.667v4.667a.667.667 0 0 1-.667.666H9.333a.667.667 0 0 1-.666-.666V2zM10 2.667V6h3.333V2.667H10zM8.667 9.333c0-.368.298-.666.666-.666H14c.368 0 .667.298.667.666V14a.667.667 0 0 1-.667.667H9.333A.667.667 0 0 1 8.667 14V9.333zM10 10v3.333h3.333V10H10zM1.333 9.333c0-.368.299-.666.667-.666h4.667c.368 0 .666.298.666.666V14a.667.667 0 0 1-.666.667H2A.667.667 0 0 1 1.333 14V9.333zM2.667 10v3.333H6V10H2.667z"/></symbol><symbol viewBox="0 0 16 16" id="heart" xmlns="http://www.w3.org/2000/svg"><path d="M8.08 12.864L8 12.94l-.088-.076C4.112 9.575 1.6 7.4 1.6 5.196c0-1.526 1.2-2.67 2.8-2.67 1.232 0 2.432.763 2.856 1.8h1.488c.424-1.037 1.624-1.8 2.856-1.8 1.6 0 2.8 1.144 2.8 2.67 0 2.205-2.512 4.38-6.32 7.668zM11.6 1c-1.392 0-2.728.618-3.6 1.587C7.128 1.618 5.792 1 4.4 1 1.936 1 0 2.839 0 5.196c0 2.876 2.72 5.234 6.84 8.797L8 15l1.16-1.007C13.28 10.43 16 8.073 16 5.196 16 2.84 14.064 1 11.6 1z"/></symbol><symbol viewBox="0 0 16 16" id="search" xmlns="http://www.w3.org/2000/svg"><path fill-rule="evenodd" clip-rule="evenodd" d="M7.333 2.667a4.667 4.667 0 1 0 0 9.333 4.667 4.667 0 0 0 0-9.333zm-6 4.666a6 6 0 1 1 12 0 6 6 0 0 1-12 0z"/><path fill-rule="evenodd" clip-rule="evenodd" d="M10.628 10.629c.26-.26.683-.26.943 0l2.9 2.9a.667.667 0 0 1-.943.942l-2.9-2.9a.667.667 0 0 1 0-.942z"/></symbol><symbol viewBox="0 0 24 24" id="telegram" xmlns="http://www.w3.org/2000/svg"><path fill-rule="evenodd" clip-rule="evenodd" d="M17.16 13.68c.154-.904.251-1.506.332-2.018.08-.513.143-.938.191-1.273.048-.335.08-.583.11-.794.03-.213.056-.392.079-.577.023-.185.043-.378.058-.545.016-.17.027-.315.031-.427.004-.11 0-.183-.006-.235a.738.738 0 0 0-.068-.23.488.488 0 0 0-.21-.208.72.72 0 0 0-.193-.066.89.89 0 0 0-.235-.011c-.082.006-.163.02-.278.048a5.867 5.867 0 0 0-.437.126c-.175.058-.378.131-2.093.855-1.715.724-4.94 2.096-6.556 2.787-1.616.69-1.62.698-1.667.72-.048.022-.14.058-.246.107a4.05 4.05 0 0 0-.327.17c-.1.059-.183.114-.244.165a.734.734 0 0 0-.135.138.249.249 0 0 0-.046.116.477.477 0 0 0-.002.141.312.312 0 0 0 .045.125.44.44 0 0 0 .102.109.987.987 0 0 0 .18.11c.077.038.17.078.318.13.146.051.344.117.608.198.264.083.593.184.845.251s.427.103.57.13c.144.027.257.044.368.049.11.004.218 0 .323-.02a2.114 2.114 0 0 0 .592-.2c.095-.048.194-.108.682-.435.488-.328 1.364-.923 2.15-1.458a466.94 466.94 0 0 1 1.871-1.26c.385-.256.458-.3.512-.335.054-.034.09-.058.126-.073a.358.358 0 0 1 .108-.026.3.3 0 0 1 .093.004c.026.006.05.017.068.031a.108.108 0 0 1 .04.066.39.39 0 0 1 .006.12c-.004.038-.015.063-.077.138a7.197 7.197 0 0 1-.505.533c-.33.33-.877.864-1.213 1.19-.335.325-.458.443-.565.545l-.298.28c-.098.093-.2.191-.298.287l-.286.274c-.091.088-.18.173-.267.26a9.063 9.063 0 0 0-.248.256 2.381 2.381 0 0 0-.166.197.99.99 0 0 0-.158.337c-.01.053-.008.1.008.16a.826.826 0 0 0 .233.38c.066.065.151.137.485.372.334.235.913.633 1.485 1.025l1.481 1.014c.348.236.478.324.607.39s.255.108.34.135a.73.73 0 0 0 .203.039c.074.005.179.006.256-.002a.386.386 0 0 0 .18-.058.735.735 0 0 0 .172-.142 1.39 1.39 0 0 0 .175-.242c.052-.09.092-.184.126-.279.034-.094.06-.184.177-.833.117-.649.328-1.857.482-2.761h.006zM12 0c6.627 0 12 5.373 12 12s-5.373 12-12 12S0 18.627 0 12 5.373 0 12 0zm0 1.321c5.909 0 10.698 4.78 10.698 10.68 0 5.9-4.79 10.681-10.698 10.681-5.909 0-10.698-4.78-10.698-10.68C1.302 6.102 6.092 1.32 12 1.32z"/></symbol><symbol viewBox="0 0 24 24" id="vk" xmlns="http://www.w3.org/2000/svg"><path fill-rule="evenodd" clip-rule="evenodd" d="M9.604 12.898c-.551-.638-1.115-1.677-1.44-2.45-.11-.261-.222-.516-.32-.79-.074-.212-.2-.626-.33-.781-.202-.243-.538-.188-.915-.188-.217 0-.947-.011-1.104.003-.4.035-.487.232-.413.646.056.304.149.601.241.87.27.777.65 1.582 1.052 2.28.266.463.552.938.852 1.369.153.22.305.439.465.644.574.74 1.44 1.532 2.462 1.965.518.22 1.146.401 1.824.385.337-.007.71-.021.893-.214.098-.102.105-.268.105-.447v-.562c0-.246-.029-.887.048-1.068.059-.137.204-.17.397-.153a.981.981 0 0 1 .411.147c.223.126.596.42.776.6l.143.137c.095.084.197.183.28.279.088.098.176.184.264.283l.264.295c.144.168.368.421.553.556.27.194.564.149.95.149.35 0 .75.019 1.09-.005.355-.025.535-.244.423-.625-.12-.403-.603-.998-.882-1.337l-.924-1.013c-.026-.029-.039-.047-.067-.074-.17-.16-.505-.475-.54-.708-.033-.207.245-.544.37-.729.456-.678 1.658-2.471 1.786-3.214.034-.199-.02-.32-.148-.392-.125-.072-.312-.065-.48-.065h-.555c-.274 0-.833-.033-1.05.05-.276.105-.364.362-.475.634-.082.2-.26.558-.36.75a12.73 12.73 0 0 1-.826 1.394 7.586 7.586 0 0 1-.482.628c-.113.133-.434.444-.614.492-.396.109-.35-.407-.35-.722V9.686c0-.319.056-.801-.178-.936-.133-.077-.315-.058-.488-.058h-1.654c-.272 0-.757-.078-.805.3-.053.405.584.479.584 1.64v1.116c0 .363.014.757 0 1.115-.008.163-.033.35-.146.405-.19.092-.44-.107-.546-.228-.045-.05-.093-.089-.138-.142h-.003zM12 0c6.627 0 12 5.373 12 12s-5.373 12-12 12S0 18.628 0 12 5.373 0 12 0zm0 1.321c5.909 0 10.698 4.78 10.698 10.68 0 5.9-4.79 10.681-10.698 10.681-5.909 0-10.698-4.784-10.698-10.682C1.302 6.102 6.092 1.321 12 1.321z"/></symbol></svg>